<?xml version="1.0" encoding="utf-8"?>
<!-- Generator: Adobe Illustrator 16.0.4, SVG Export Plug-In . SVG Version: 6.00 Build 0)  -->
<!DOCTYPE svg PUBLIC "-//W3C//DTD SVG 1.1//EN" "http://www.w3.org/Graphics/SVG/1.1/DTD/svg11.dtd">
<svg version="1.1" id="Calque_1" xmlns="http://www.w3.org/2000/svg" xmlns:xlink="http://www.w3.org/1999/xlink" x="0px" y="0px"
	 width="800px" height="600px" viewBox="0 0 800 600" enable-background="new 0 0 800 600" xml:space="preserve">
<text transform="matrix(1 0 0 1 179.8296 211)" fill="#E6E6E6" font-family="'TheSerif-Bold'" font-size="21">http serveur</text>
<g id="server">
	<path fill="#808080" d="M171,186v-12h-42v12h3v3h-3v12h3v3h-3v12h42v-12h-3v-3h3v-12h-3v-3H171z M132,180h6v3h-6V180z M132,195h6v3
		h-6V195z M138,213h-6v-3h6V213z M165,204h-30v-3h30V204z M165,189h-30v-3h30V189z"/>
</g>
<g id="database">
	<path fill="#808080" d="M194.504,66.688c0.042-0.419-0.315-2.637-3.231-4.385c-2.898-1.769-8.147-3.297-18.29-3.303
		c-10.145,0.006-15.394,1.534-18.292,3.303c-2.916,1.745-3.273,3.964-3.231,4.385l0,0v34.963c-0.054,0.541,0.468,2.501,3.345,3.88
		c2.871,1.424,8.054,2.661,18.177,2.67c10.12-0.009,15.306-1.246,18.173-2.67c2.88-1.378,3.402-3.339,3.348-3.88V66.688
		L194.504,66.688z M191.09,101.909c-0.964,0.991-5.147,3.246-18.107,3.216c-9.862,0.012-14.669-1.262-16.798-2.342
		c-1.067-0.538-1.518-0.997-1.653-1.201c-0.027-0.04,0.014-0.072,0.003-0.093l-0.003-30.522c0.056,0.036,0.099,0.072,0.159,0.106
		c2.898,1.768,8.147,3.293,18.292,3.302c10.143-0.009,15.392-1.535,18.29-3.3c0.057-0.036,0.102-0.074,0.16-0.108v30.525
		C191.402,101.554,191.315,101.689,191.09,101.909z"/>
</g>
<g id="settings">
	<path fill="#808080" d="M242,119.913v-6.427h-6.752c-0.402-1.973-1.171-3.806-2.222-5.441l4.818-4.82l-4.548-4.545l-4.746,4.744
		c-1.733-1.185-3.708-2.04-5.835-2.472V94.2h-6.429v6.752c-2.053,0.417-3.958,1.229-5.644,2.345l-4.62-4.617l-4.545,4.543
		l4.619,4.622c-1.116,1.686-1.927,3.589-2.343,5.641H197v6.429h6.753c0.432,2.128,1.287,4.103,2.472,5.835l-4.748,4.746l4.548,4.548
		l4.817-4.82c1.639,1.05,3.472,1.822,5.444,2.224v6.752h6.427v-6.752c2.05-0.417,3.958-1.227,5.644-2.345l4.939,4.941l4.548-4.548
		l-4.941-4.939c1.116-1.687,1.927-3.592,2.343-5.644H242z M219.5,126.341c-5.324-0.009-9.633-4.321-9.645-9.641
		c0.013-5.325,4.321-9.633,9.645-9.643c5.324,0.01,9.632,4.318,9.641,9.643C229.132,122.024,224.824,126.332,219.5,126.341z"/>
</g>
<rect x="88.5" y="45.5" fill="none" stroke="#808080" stroke-width="5" stroke-miterlimit="10" width="279" height="193"/>
<g>
	<g>
		<defs>
			<rect id="SVGID_1_" x="284.503" y="56.834" width="67.001" height="49.738"/>
		</defs>
		<clipPath id="SVGID_2_">
			<use xlink:href="#SVGID_1_"  overflow="visible"/>
		</clipPath>
		<g clip-path="url(#SVGID_2_)">
			<defs>
				<rect id="SVGID_3_" x="284.503" y="56.834" width="67.001" height="49.738"/>
			</defs>
			<clipPath id="SVGID_4_">
				<use xlink:href="#SVGID_3_"  overflow="visible"/>
			</clipPath>
			<path clip-path="url(#SVGID_4_)" fill="#FFFFFF" d="M311.341,93.05c-0.634,0.716-1.119,1.36-1.457,1.933
				c-0.337,0.572-0.506,1.032-0.506,1.38c0,0.552,0.205,0.94,0.614,1.166c0.409,0.225,1.196,0.337,2.361,0.337h2.944v4.785h-21.929
				v-4.785h2.085c1.227,0,2.213-0.184,2.96-0.552c0.746-0.368,1.682-1.206,2.806-2.515l12.054-13.679l-9.907-12.452
				c-1.063-1.329-2.045-2.229-2.944-2.699c-0.9-0.47-1.994-0.705-3.282-0.705h-2.147v-4.754h22.297v4.754h-2.883
				c-0.593,0-1.043,0.107-1.35,0.322c-0.307,0.215-0.46,0.527-0.46,0.936c0,0.286,0.077,0.578,0.23,0.874
				c0.153,0.297,0.414,0.66,0.782,1.089l5.521,6.717l6.717-7.023c0.307-0.307,0.552-0.624,0.736-0.951
				c0.184-0.327,0.276-0.603,0.276-0.828c0-0.368-0.23-0.649-0.69-0.844c-0.46-0.194-1.15-0.291-2.07-0.291h-2.454v-4.754h19.782
				v4.754h-2.27c-1.615,0-3.813,1.534-6.594,4.601l-0.061,0.061l-9.293,10.183l10.673,13.311c1.677,2.085,2.949,3.348,3.818,3.788
				c0.869,0.439,2.111,0.659,3.727,0.659h1.871v4.785h-24.168v-4.785h2.883c1.022,0,1.769-0.087,2.239-0.261
				s0.705-0.465,0.705-0.874c0-0.307-0.061-0.629-0.184-0.966c-0.123-0.337-0.307-0.659-0.552-0.966l-6.87-8.68L311.341,93.05z"/>
			<path clip-path="url(#SVGID_4_)" d="M311.341,93.05l0.32,0.283c-0.622,0.701-1.091,1.327-1.409,1.866
				c-0.321,0.538-0.452,0.953-0.447,1.163c0,0.224,0.041,0.387,0.104,0.507c0.064,0.119,0.148,0.207,0.288,0.285
				c0.262,0.156,1.022,0.291,2.156,0.285h3.372v5.638h-22.783v-5.638h2.512c1.185,0,2.109-0.181,2.771-0.508
				c0.647-0.314,1.568-1.122,2.671-2.41l0.001-0.002l11.819-13.413l-9.684-12.172l0,0.001c-1.041-1.303-1.993-2.163-2.809-2.587
				c-0.821-0.429-1.836-0.657-3.064-0.657h-0.021h-2.573v-5.608h23.151v5.608h-3.31c-0.544-0.001-0.908,0.104-1.105,0.245
				c-0.193,0.146-0.268,0.281-0.278,0.585c0,0.209,0.055,0.431,0.183,0.678c0.127,0.249,0.371,0.593,0.727,1.007l0.003,0.003
				l5.217,6.348l6.388-6.679l0.003-0.003c0.283-0.283,0.503-0.57,0.666-0.858c0.166-0.291,0.224-0.511,0.221-0.619
				c-0.002-0.095-0.021-0.146-0.076-0.217c-0.056-0.069-0.167-0.155-0.354-0.233c-0.366-0.158-1.014-0.26-1.903-0.258h-0.005
				l0.005-0.427v0.427h-2.881v-5.608h20.637v5.608h-2.697h0h-0.011c-0.668-0.003-1.554,0.333-2.612,1.076
				c-1.058,0.739-2.283,1.87-3.656,3.385l-0.007,0.008l-0.062,0.062l-9.041,9.905l10.445,13.026v0
				c1.654,2.068,2.936,3.309,3.678,3.674c0.772,0.394,1.957,0.615,3.534,0.614h2.298v5.638h-25.022v-5.638h3.31
				c0.997,0.002,1.713-0.091,2.091-0.234c0.185-0.068,0.29-0.148,0.345-0.216c0.054-0.07,0.079-0.133,0.082-0.256v-0.009
				l0.427,0.008h-0.427c0-0.25-0.05-0.521-0.158-0.82l-0.003-0.009l0.003,0.009c-0.106-0.29-0.265-0.571-0.484-0.845l-0.001-0.001
				l-6.551-8.276l-5.675,6.544l-0.001,0.001L311.341,93.05l-0.322-0.279l6.349-7.321l7.19,9.083l-0.001-0.001
				c0.271,0.339,0.48,0.702,0.62,1.086v0c0.137,0.376,0.21,0.748,0.21,1.112v0.004v0.004L325,96.732h0.386v0.007L325,96.732h0.386
				c0.002,0.285-0.09,0.572-0.271,0.793c-0.18,0.223-0.428,0.375-0.713,0.48c-0.562,0.205-1.339,0.285-2.387,0.287h-2.456v3.931
				h23.314v-3.931h-1.444c-1.654-0.001-2.954-0.219-3.919-0.705c-0.996-0.514-2.26-1.798-3.959-3.901L322.649,80.09l9.546-10.46
				l0.068-0.068l0.302,0.302l-0.316-0.287c1.402-1.545,2.662-2.715,3.799-3.511c1.137-0.792,2.156-1.226,3.102-1.23h0.01h1.843v-3.9
				h-18.929v3.9h2.029h0.002l-0.004,0.364v-0.364h0.004l-0.004,0.364v-0.364c0.951,0.002,1.682,0.094,2.236,0.325
				c0.273,0.116,0.508,0.268,0.682,0.479c0.175,0.21,0.271,0.484,0.269,0.757c-0.003,0.342-0.128,0.674-0.331,1.037
				c-0.206,0.366-0.477,0.713-0.807,1.043l-0.302-0.302l0.309,0.295l-7.05,7.372l-5.826-7.089l0.33-0.271l-0.324,0.278
				c-0.381-0.445-0.658-0.826-0.837-1.17c-0.179-0.346-0.278-0.707-0.278-1.07c-0.009-0.513,0.223-1.002,0.642-1.285
				c0.417-0.289,0.953-0.398,1.595-0.399h2.456v-3.9H295.42v3.9h1.72h0h0.02c1.332,0,2.49,0.248,3.459,0.754
				c0.984,0.517,1.994,1.456,3.08,2.811l0.001,0.001l10.129,12.732l-12.29,13.947l-0.32-0.282l0.324,0.278
				c-1.146,1.328-2.096,2.198-2.941,2.62c-0.831,0.408-1.879,0.595-3.148,0.596h-1.659v3.931h21.076v-3.931h-2.518
				c-1.197-0.006-2.012-0.096-2.567-0.39c-0.269-0.146-0.492-0.366-0.632-0.635c-0.142-0.269-0.203-0.576-0.203-0.904
				c0.005-0.485,0.212-0.99,0.565-1.597c0.357-0.606,0.858-1.269,1.505-1.999L311.341,93.05l-0.322-0.279L311.341,93.05z"/>
			<path clip-path="url(#SVGID_4_)" fill="#E00000" d="M290.749,73.735h8.846c1.475,0,2.606,0.365,3.396,1.095
				c0.789,0.73,1.184,1.634,1.184,2.712c0,0.904-0.281,1.68-0.845,2.327c-0.375,0.431-0.925,0.772-1.648,1.022
				c1.099,0.265,1.907,0.718,2.426,1.361c0.518,0.644,0.777,1.452,0.777,2.426c0,0.792-0.184,1.506-0.553,2.139
				s-0.873,1.133-1.513,1.502c-0.396,0.229-0.995,0.396-1.794,0.501c-1.064,0.139-1.77,0.208-2.118,0.208h-8.158V73.735z
				 M295.517,79.734h2.055c0.737,0,1.25-0.127,1.539-0.381s0.433-0.621,0.433-1.101c0-0.445-0.144-0.793-0.433-1.043
				c-0.289-0.25-0.791-0.375-1.508-0.375h-2.086V79.734z M295.517,85.743h2.41c0.813,0,1.387-0.145,1.721-0.433
				s0.501-0.676,0.501-1.163c0-0.452-0.166-0.815-0.496-1.09c-0.331-0.275-0.91-0.412-1.737-0.412h-2.399V85.743z"/>
			<path clip-path="url(#SVGID_4_)" fill="#FFFFFF" d="M290.749,73.735v-0.427h8.846c1.541-0.001,2.795,0.384,3.686,1.209
				c0.87,0.798,1.326,1.843,1.321,3.026c0.003,0.992-0.319,1.887-0.95,2.607c-0.439,0.504-1.059,0.878-1.831,1.146l-0.14-0.404
				l0.1-0.416c1.158,0.278,2.063,0.771,2.658,1.509c0.587,0.727,0.874,1.646,0.872,2.694c0.001,0.858-0.202,1.653-0.611,2.354
				c-0.404,0.695-0.967,1.254-1.668,1.657l0,0c-0.48,0.276-1.122,0.445-1.953,0.555l-0.003,0l0.003,0
				c-1.074,0.14-1.777,0.211-2.173,0.212h-8.585V73.308h0.427V73.735h0.427v14.866h7.73c0.299,0.001,1.008-0.066,2.062-0.205l0,0
				c0.769-0.099,1.323-0.263,1.635-0.447l0.001,0l0,0c0.579-0.334,1.023-0.776,1.357-1.347c0.329-0.565,0.494-1.196,0.495-1.923
				c-0.002-0.9-0.233-1.597-0.683-2.158c-0.441-0.548-1.153-0.963-2.192-1.214l-1.42-0.341l1.38-0.478
				c0.674-0.233,1.154-0.541,1.466-0.899c0.496-0.574,0.737-1.23,0.74-2.046c-0.005-0.973-0.338-1.736-1.047-2.398
				c-0.688-0.636-1.697-0.98-3.105-0.982h-8.846V73.735h0.427H290.749z M295.517,79.734v-0.427h2.057h0.003l-0.004,0.375v-0.375
				h0.004l-0.004,0.375v-0.375c0.691,0.005,1.113-0.136,1.256-0.274c0.181-0.164,0.283-0.381,0.288-0.78
				c-0.005-0.356-0.098-0.552-0.286-0.721c-0.146-0.138-0.557-0.275-1.228-0.271h-1.659v2.473H295.517v-0.427V79.734h-0.428v-3.328
				h2.514c0.762,0.005,1.357,0.118,1.788,0.48c0.39,0.333,0.586,0.832,0.581,1.366c0.004,0.561-0.182,1.078-0.578,1.421
				c-0.434,0.37-1.039,0.482-1.82,0.487h-0.006l0.005-0.427v0.427h-2.482v-0.427H295.517z M295.517,85.743v-0.427h2.41
				c0.767,0.004,1.247-0.15,1.442-0.329c0.238-0.212,0.347-0.448,0.353-0.84c-0.006-0.349-0.105-0.557-0.341-0.762
				c-0.187-0.167-0.68-0.318-1.464-0.313h-1.972v2.671H295.517v-0.427V85.743h-0.428v-3.526h2.827
				c0.872,0.005,1.536,0.128,2.01,0.511c0.425,0.345,0.656,0.863,0.65,1.418c0.006,0.583-0.219,1.122-0.649,1.486
				c-0.473,0.399-1.141,0.533-2,0.537h-2.837v-0.427H295.517z"/>
			<path clip-path="url(#SVGID_4_)" fill="#E00000" d="M314.572,86.504h-5.383l-0.741,2.524h-4.83l5.748-15.293h5.154l5.748,15.293
				h-4.945L314.572,86.504z M313.581,83.197l-1.69-5.498l-1.679,5.498H313.581z"/>
			<path clip-path="url(#SVGID_4_)" fill="#FFFFFF" d="M314.572,86.504v0.427h-5.063l-0.741,2.524h-5.767l6.069-16.148h5.746
				l6.069,16.148h-5.88l-0.842-2.83L314.572,86.504v0.427V86.504l0.41-0.122l0.66,2.219h4.009l-5.427-14.439h-4.562l-5.427,14.439
				h3.893l0.741-2.524h6.021l0.091,0.305L314.572,86.504z M313.581,83.197l-0.409,0.125l-1.28-4.165l-1.104,3.612h2.792V83.197
				l-0.409,0.125L313.581,83.197v0.427h-3.947l2.256-7.383l2.27,7.383h-0.578V83.197z"/>
			<path clip-path="url(#SVGID_4_)" fill="#E00000" d="M319.153,84.23l4.496-0.282c0.097,0.73,0.295,1.287,0.595,1.669
				c0.487,0.619,1.182,0.928,2.086,0.928c0.674,0,1.194-0.158,1.56-0.475s0.547-0.683,0.547-1.101c0-0.396-0.174-0.751-0.521-1.064
				s-1.154-0.609-2.42-0.887c-2.073-0.466-3.551-1.085-4.434-1.857c-0.891-0.772-1.335-1.756-1.335-2.953
				c0-0.786,0.228-1.528,0.683-2.227c0.456-0.699,1.141-1.249,2.055-1.648s2.168-0.6,3.761-0.6c1.955,0,3.444,0.363,4.47,1.09
				c1.026,0.727,1.636,1.883,1.831,3.469l-4.455,0.261c-0.118-0.689-0.367-1.189-0.746-1.502s-0.902-0.469-1.57-0.469
				c-0.55,0-0.963,0.116-1.242,0.349c-0.278,0.233-0.417,0.517-0.417,0.85c0,0.244,0.115,0.463,0.344,0.657
				c0.222,0.202,0.751,0.39,1.585,0.563c2.066,0.445,3.545,0.896,4.439,1.351s1.544,1.021,1.951,1.695
				c0.407,0.674,0.61,1.429,0.61,2.264c0,0.98-0.271,1.885-0.813,2.712s-1.301,1.455-2.274,1.883s-2.201,0.642-3.683,0.642
				c-2.601,0-4.402-0.5-5.404-1.502S319.285,85.774,319.153,84.23"/>
			<path clip-path="url(#SVGID_4_)" fill="#FFFFFF" d="M319.153,84.23l-0.027-0.426l4.894-0.307l0.052,0.395
				c0.09,0.685,0.276,1.168,0.508,1.462l0-0.001c0.409,0.51,0.94,0.758,1.75,0.765c0.612-0.001,1.017-0.142,1.28-0.37
				c0.293-0.262,0.395-0.49,0.4-0.778l0,0c-0.004-0.267-0.1-0.487-0.38-0.747c-0.101-0.094-0.351-0.237-0.727-0.373
				c-0.376-0.138-0.879-0.278-1.499-0.415h-0.001h-0.001c-2.108-0.477-3.643-1.103-4.621-1.952l0.001,0.001
				c-0.978-0.84-1.489-1.973-1.482-3.275c-0.001-0.869,0.256-1.701,0.752-2.46c0.507-0.779,1.269-1.382,2.242-1.806
				c0.999-0.435,2.304-0.635,3.932-0.636c2.005,0.001,3.583,0.368,4.717,1.168c1.142,0.806,1.808,2.102,2.008,3.766l0.056,0.452
				l-5.291,0.31l-0.065-0.376c-0.108-0.628-0.323-1.021-0.597-1.245c-0.28-0.231-0.691-0.371-1.293-0.372h-0.006h0.001
				c-0.493,0-0.801,0.107-0.967,0.25c-0.198,0.175-0.258,0.311-0.264,0.522c0.004,0.103,0.03,0.187,0.193,0.332l0.005,0.004
				l0.005,0.005c0.035,0.036,0.183,0.125,0.419,0.206c0.237,0.084,0.562,0.171,0.967,0.256h0.001l0.001,0
				c2.084,0.45,3.583,0.901,4.542,1.388c0.945,0.481,1.666,1.097,2.123,1.855c0.448,0.741,0.672,1.581,0.671,2.484
				c0.001,1.06-0.298,2.055-0.884,2.947c-0.587,0.898-1.419,1.584-2.459,2.04c-1.047,0.46-2.333,0.677-3.854,0.678
				c-2.649-0.004-4.561-0.495-5.706-1.627c-1.075-1.072-1.688-2.457-1.824-4.083l-0.038-0.436l0.437-0.027L319.153,84.23
				l0.426-0.037c0.127,1.461,0.649,2.622,1.577,3.553c0.858,0.871,2.549,1.381,5.102,1.377c1.441,0,2.611-0.209,3.511-0.605
				c0.908-0.4,1.591-0.969,2.089-1.726c0.499-0.764,0.742-1.576,0.744-2.478c-0.001-0.766-0.184-1.435-0.549-2.043
				c-0.356-0.591-0.937-1.105-1.779-1.535c-0.828-0.424-2.288-0.875-4.335-1.314l0.003,0c-0.43-0.09-0.787-0.184-1.079-0.287
				c-0.292-0.106-0.519-0.211-0.707-0.378l0.287-0.317l-0.276,0.326c-0.296-0.245-0.5-0.599-0.495-0.983
				c-0.006-0.456,0.212-0.886,0.57-1.178c0.39-0.324,0.91-0.448,1.516-0.449h0h0h0.004c0.729,0,1.361,0.175,1.837,0.567
				c0.485,0.401,0.767,1.01,0.895,1.759l-0.421,0.073l-0.025-0.427l4.454-0.261l0.025,0.426l-0.424,0.052
				c-0.189-1.508-0.744-2.524-1.654-3.172c-0.917-0.653-2.319-1.013-4.223-1.012c-1.557-0.001-2.759,0.199-3.589,0.564
				c-0.856,0.375-1.464,0.871-1.869,1.49c-0.415,0.639-0.613,1.291-0.614,1.994c0.006,1.09,0.385,1.925,1.188,2.63l0,0l0,0
				c0.788,0.694,2.209,1.307,4.247,1.762l-0.002,0c0.646,0.142,1.18,0.289,1.61,0.446c0.431,0.16,0.758,0.321,1.005,0.54
				c0.415,0.367,0.667,0.855,0.663,1.382l0,0c0.004,0.547-0.259,1.053-0.695,1.423c-0.468,0.405-1.102,0.58-1.839,0.579
				c-0.998,0.007-1.858-0.363-2.422-1.091l-0.001-0.001c-0.366-0.471-0.577-1.1-0.681-1.876l0.423-0.057l0.027,0.427l-4.497,0.281
				L319.153,84.23l0.426-0.037L319.153,84.23z"/>
			<polygon clip-path="url(#SVGID_4_)" fill="#E00000" points="333.175,73.735 345.84,73.735 345.84,77 337.911,77 337.911,79.431 
				345.266,79.431 345.266,82.55 337.911,82.55 337.911,85.565 346.069,85.565 346.069,89.029 333.175,89.029 			"/>
			<polygon clip-path="url(#SVGID_4_)" fill="#FFFFFF" points="333.175,73.735 333.175,73.308 346.267,73.308 346.267,77.428 
				338.339,77.428 338.339,79.004 345.693,79.004 345.693,82.978 338.339,82.978 338.339,85.138 346.497,85.138 346.497,89.456 
				332.748,89.456 332.748,73.308 333.175,73.308 333.175,73.735 333.603,73.735 333.603,88.602 345.642,88.602 345.642,85.993 
				337.484,85.993 337.484,82.123 344.839,82.123 344.839,79.858 337.484,79.858 337.484,76.573 345.413,76.573 345.413,74.163 
				333.175,74.163 333.175,73.735 333.603,73.735 			"/>
		</g>
	</g>
</g>
<text transform="matrix(1 0 0 1 240.9565 144)"><tspan x="0" y="0" fill="#E6E6E6" font-family="'TheSerif-Bold'" font-size="21">XQuery</tspan><tspan x="-8.746" y="25.2" fill="#E6E6E6" font-family="'TheSerif-Bold'" font-size="21">processor</tspan></text>
<text transform="matrix(1 0 0 1 104.666 129.2002)" fill="#E6E6E6" font-family="'TheSerif-Bold'" font-size="21">datas</text>
<text transform="matrix(1 0 0 1 577.666 170.2881)" fill="#E6E6E6" font-family="'TheSerif-Bold'" font-size="21">GUI</text>
<g id="computer">
	<polygon fill="#808080" points="503,160.288 509,148.288 545,148.288 551,160.288 	"/>
	<path fill="#808080" d="M509,118.288v27h36v-27H509z M542,142.288h-30v-21h30V142.288z"/>
</g>
<text transform="matrix(1 0 0 1 568.1641 287.5254)" fill="#E6E6E6" font-family="'TheSerif-Bold'" font-size="21">client</text>
<g id="computer_1_">
	<polygon fill="#808080" points="503,277.525 509,265.525 545,265.525 551,277.525 	"/>
	<path fill="#808080" d="M509,235.525v27h36v-27H509z M542,259.525h-30v-21h30V259.525z"/>
</g>
<g>
	<g>
		<defs>
			<rect id="SVGID_5_" x="562.503" y="102.054" width="67.001" height="49.738"/>
		</defs>
		<clipPath id="SVGID_6_">
			<use xlink:href="#SVGID_5_"  overflow="visible"/>
		</clipPath>
		<g clip-path="url(#SVGID_6_)">
			<defs>
				<rect id="SVGID_7_" x="562.503" y="102.054" width="67.001" height="49.738"/>
			</defs>
			<clipPath id="SVGID_8_">
				<use xlink:href="#SVGID_7_"  overflow="visible"/>
			</clipPath>
			<path clip-path="url(#SVGID_8_)" fill="#FFFFFF" d="M589.341,138.27c-0.634,0.716-1.119,1.36-1.457,1.933
				c-0.337,0.572-0.506,1.032-0.506,1.38c0,0.552,0.205,0.94,0.613,1.166c0.409,0.225,1.196,0.337,2.362,0.337h2.944v4.785h-21.93
				v-4.785h2.086c1.227,0,2.213-0.184,2.959-0.552c0.747-0.368,1.682-1.207,2.807-2.515l12.054-13.679l-9.906-12.452
				c-1.063-1.329-2.045-2.229-2.945-2.699c-0.899-0.47-1.993-0.705-3.281-0.705h-2.146v-4.754h22.297v4.754h-2.883
				c-0.593,0-1.043,0.107-1.35,0.322c-0.307,0.215-0.46,0.527-0.46,0.936c0,0.286,0.076,0.578,0.229,0.874
				c0.153,0.297,0.414,0.66,0.782,1.089l5.521,6.717l6.717-7.023c0.308-0.307,0.553-0.624,0.736-0.951
				c0.185-0.327,0.276-0.603,0.276-0.828c0-0.368-0.23-0.649-0.69-0.844c-0.46-0.194-1.15-0.291-2.07-0.291h-2.453v-4.754h19.782
				v4.754h-2.27c-1.615,0-3.813,1.533-6.594,4.601l-0.062,0.061l-9.293,10.183l10.673,13.311c1.677,2.085,2.949,3.348,3.818,3.788
				c0.869,0.439,2.111,0.659,3.727,0.659h1.871v4.785h-24.169v-4.785h2.884c1.022,0,1.769-0.087,2.238-0.261
				c0.471-0.174,0.706-0.465,0.706-0.874c0-0.307-0.062-0.629-0.185-0.966c-0.122-0.337-0.307-0.659-0.552-0.966l-6.87-8.68
				L589.341,138.27z"/>
			<path clip-path="url(#SVGID_8_)" d="M589.341,138.27l0.319,0.283c-0.621,0.701-1.091,1.327-1.408,1.866
				c-0.321,0.538-0.452,0.953-0.447,1.163c0,0.224,0.042,0.387,0.104,0.507c0.064,0.119,0.148,0.207,0.288,0.285
				c0.263,0.156,1.022,0.291,2.156,0.285h3.371v5.638h-22.783v-5.638h2.513c1.185,0,2.108-0.181,2.771-0.508
				c0.647-0.314,1.567-1.122,2.672-2.41l0.001-0.002l11.819-13.413l-9.685-12.172l0.001,0.001c-1.041-1.303-1.993-2.163-2.809-2.587
				c-0.823-0.43-1.845-0.657-3.079-0.657h-0.006h0.001h-2.574v-5.608h23.151v5.608h-3.31c-0.544-0.001-0.908,0.104-1.104,0.245
				c-0.194,0.146-0.269,0.281-0.278,0.585c0,0.209,0.055,0.431,0.183,0.678v0c0.128,0.249,0.371,0.593,0.727,1.007l0.003,0.003
				l5.218,6.348l6.388-6.679l0.003-0.003c0.283-0.283,0.504-0.57,0.666-0.858c0.166-0.291,0.225-0.511,0.222-0.619l0,0
				c-0.003-0.095-0.021-0.146-0.076-0.217c-0.056-0.069-0.167-0.155-0.354-0.233c-0.366-0.158-1.015-0.26-1.903-0.258h-0.005h0.004
				h-2.88v-5.608h20.636v5.608h-2.696l0,0h-0.009c-0.668-0.003-1.555,0.333-2.612,1.075c-1.059,0.739-2.283,1.87-3.657,3.385
				l-0.007,0.008l-0.062,0.062l-9.04,9.905l10.444,13.026v0c1.654,2.068,2.936,3.309,3.678,3.674
				c0.772,0.394,1.957,0.615,3.534,0.614h2.298v5.638h-25.022v-5.638h3.311c0.996,0.002,1.713-0.091,2.091-0.234
				c0.186-0.068,0.29-0.148,0.345-0.217c0.054-0.07,0.079-0.133,0.081-0.257c0-0.25-0.049-0.521-0.158-0.82l0,0
				c-0.105-0.29-0.265-0.571-0.483-0.845l-0.001-0.001l-6.551-8.276l-5.676,6.544l-0.002,0.001L589.341,138.27l-0.322-0.279
				l6.349-7.321l7.19,9.083l-0.002-0.001c0.271,0.339,0.48,0.702,0.62,1.086l0.004,0.011l-0.004-0.011
				c0.137,0.376,0.21,0.748,0.21,1.112c0.002,0.285-0.09,0.572-0.271,0.793c-0.18,0.223-0.428,0.376-0.713,0.481
				c-0.562,0.205-1.339,0.285-2.387,0.287h-2.456v3.931h23.314v-3.931h-1.444c-1.653-0.001-2.954-0.219-3.919-0.705
				c-0.996-0.514-2.26-1.798-3.959-3.901l-10.902-13.596l9.547-10.46l0.067-0.068l0.303,0.302l-0.316-0.287
				c1.401-1.546,2.662-2.716,3.8-3.511c1.137-0.792,2.156-1.226,3.102-1.229h0.009h1.843v-3.9h-18.929v3.9h2.028h0.002l-0.003,0.326
				v-0.326h0.003l-0.003,0.326v-0.326c0.95,0.002,1.682,0.094,2.235,0.325c0.273,0.116,0.508,0.268,0.683,0.479
				c0.175,0.21,0.271,0.484,0.269,0.757l0,0c-0.003,0.342-0.128,0.674-0.331,1.037c-0.206,0.366-0.476,0.713-0.806,1.043
				l-0.303-0.302l0.309,0.295l-7.049,7.372l-5.826-7.089l0.329-0.271l-0.324,0.278c-0.38-0.445-0.658-0.826-0.837-1.17l-0.004-0.007
				l0.004,0.007c-0.179-0.345-0.278-0.707-0.277-1.07c-0.01-0.513,0.223-1.002,0.642-1.285c0.417-0.289,0.952-0.398,1.595-0.399
				h2.456v-3.9h-21.443v3.9h1.721h0.004c1.337,0,2.501,0.246,3.475,0.754c0.983,0.516,1.994,1.456,3.08,2.811l0.001,0.001
				l10.129,12.732L579.54,140.3l-0.32-0.282l0.324,0.278c-1.146,1.328-2.097,2.198-2.941,2.62c-0.831,0.408-1.88,0.595-3.148,0.596
				h-1.659v3.931h21.075v-3.931h-2.517c-1.197-0.006-2.013-0.096-2.567-0.39c-0.27-0.146-0.492-0.366-0.633-0.635
				c-0.142-0.269-0.202-0.576-0.202-0.904c0.006-0.485,0.212-0.99,0.565-1.597c0.357-0.606,0.858-1.269,1.505-1.999L589.341,138.27
				l-0.322-0.279L589.341,138.27z"/>
			<path clip-path="url(#SVGID_8_)" fill="#E00000" d="M568.749,118.955h8.847c1.474,0,2.605,0.365,3.396,1.095
				c0.789,0.73,1.184,1.634,1.184,2.712c0,0.904-0.281,1.68-0.845,2.327c-0.376,0.431-0.925,0.772-1.648,1.022
				c1.099,0.265,1.907,0.718,2.426,1.361c0.518,0.644,0.777,1.452,0.777,2.426c0,0.792-0.185,1.505-0.553,2.139
				c-0.369,0.633-0.873,1.133-1.514,1.502c-0.396,0.229-0.994,0.396-1.794,0.501c-1.063,0.139-1.77,0.208-2.117,0.208h-8.158
				V118.955z M573.517,124.953h2.055c0.737,0,1.25-0.127,1.539-0.381c0.288-0.254,0.433-0.621,0.433-1.101
				c0-0.445-0.145-0.793-0.433-1.043c-0.289-0.25-0.791-0.375-1.508-0.375h-2.086V124.953z M573.517,130.962h2.409
				c0.814,0,1.388-0.145,1.722-0.433s0.501-0.676,0.501-1.163c0-0.452-0.165-0.815-0.496-1.09c-0.33-0.275-0.909-0.412-1.736-0.412
				h-2.399V130.962z"/>
			<path clip-path="url(#SVGID_8_)" fill="#FFFFFF" d="M568.749,118.955v-0.427h8.847c1.54-0.001,2.795,0.384,3.686,1.209
				c0.87,0.798,1.326,1.843,1.321,3.026c0.003,0.992-0.319,1.887-0.95,2.607c-0.439,0.504-1.059,0.878-1.831,1.146l-0.14-0.404
				l0.1-0.416c1.158,0.278,2.063,0.771,2.659,1.509c0.587,0.727,0.873,1.646,0.871,2.694c0.001,0.858-0.202,1.653-0.61,2.354
				c-0.404,0.695-0.968,1.254-1.669,1.657l0.001,0c-0.48,0.276-1.122,0.445-1.953,0.555l0,0c-1.073,0.14-1.777,0.211-2.173,0.212
				h-8.586v-16.148h0.428V118.955h0.427v14.866h7.731c0.299,0.001,1.007-0.066,2.062-0.205h0.001
				c0.769-0.099,1.322-0.263,1.635-0.447l0.001,0l0,0c0.578-0.334,1.023-0.776,1.356-1.347c0.329-0.565,0.494-1.196,0.495-1.923
				c-0.002-0.9-0.233-1.597-0.683-2.158c-0.44-0.548-1.153-0.963-2.192-1.214l-1.42-0.341l1.38-0.478
				c0.675-0.233,1.154-0.541,1.466-0.899c0.496-0.574,0.737-1.23,0.74-2.046c-0.006-0.973-0.339-1.736-1.047-2.398
				c-0.688-0.636-1.697-0.98-3.105-0.982h-8.847V118.955h0.427H568.749z M573.517,124.953v-0.427h2.057h0.002l-0.003,0.341v-0.341
				h0.003l-0.003,0.341v-0.341c0.691,0.005,1.112-0.136,1.256-0.274c0.181-0.164,0.283-0.381,0.288-0.78
				c-0.006-0.356-0.099-0.552-0.286-0.721l-0.007-0.006l0.007,0.006c-0.146-0.139-0.557-0.276-1.227-0.271H575.6h0.003h-1.659v2.473
				H573.517v-0.427V124.953h-0.428v-3.328h2.516h0.002l-0.003,0.317v-0.317h0.003l-0.003,0.317v-0.317
				c0.762,0.005,1.356,0.118,1.787,0.48l0,0c0.39,0.333,0.585,0.832,0.58,1.366c0.005,0.561-0.182,1.078-0.578,1.421
				c-0.435,0.369-1.038,0.482-1.82,0.487h-0.005h0.004h-2.482v-0.427H573.517z M573.517,130.962v-0.427h2.409
				c0.768,0.004,1.248-0.15,1.442-0.329c0.237-0.212,0.347-0.448,0.353-0.84c-0.007-0.349-0.105-0.557-0.341-0.762
				c-0.188-0.167-0.681-0.318-1.464-0.313h-1.973v2.671H573.517v-0.427V130.962h-0.428v-3.526h2.827
				c0.871,0.005,1.536,0.128,2.01,0.511c0.425,0.345,0.656,0.863,0.649,1.418c0.006,0.583-0.219,1.122-0.648,1.486
				c-0.473,0.399-1.141,0.533-2.001,0.537h-2.837v-0.427H573.517z"/>
			<path clip-path="url(#SVGID_8_)" fill="#E00000" d="M592.572,131.724h-5.383l-0.741,2.524h-4.83l5.748-15.293h5.153l5.748,15.293
				h-4.944L592.572,131.724z M591.581,128.417l-1.69-5.498l-1.68,5.498H591.581z"/>
			<path clip-path="url(#SVGID_8_)" fill="#FFFFFF" d="M592.572,131.724v0.427h-5.063l-0.74,2.524h-5.768l6.069-16.148h5.745
				l6.069,16.148h-5.881l-0.842-2.83L592.572,131.724v0.427V131.724l0.409-0.122l0.66,2.219h4.009l-5.427-14.439h-4.562
				l-5.427,14.439h3.893l0.741-2.524h6.021l0.091,0.305L592.572,131.724z M591.581,128.417l-0.408,0.125l-1.28-4.165l-1.104,3.612
				h2.792V128.417l-0.408,0.125L591.581,128.417v0.427h-3.947l2.256-7.383l2.27,7.383h-0.578V128.417z"/>
			<path clip-path="url(#SVGID_8_)" fill="#E00000" d="M597.153,129.449l4.496-0.282c0.098,0.73,0.296,1.287,0.595,1.669
				c0.486,0.619,1.183,0.928,2.086,0.928c0.675,0,1.195-0.158,1.56-0.475c0.365-0.316,0.548-0.683,0.548-1.101
				c0-0.396-0.174-0.751-0.521-1.064s-1.154-0.609-2.42-0.887c-2.072-0.466-3.551-1.085-4.434-1.857
				c-0.891-0.772-1.336-1.756-1.336-2.953c0-0.786,0.229-1.528,0.684-2.227c0.455-0.699,1.141-1.249,2.056-1.648
				c0.914-0.4,2.168-0.6,3.761-0.6c1.954,0,3.444,0.363,4.47,1.09c1.025,0.727,1.636,1.883,1.831,3.468l-4.455,0.261
				c-0.118-0.689-0.366-1.189-0.745-1.502c-0.38-0.313-0.903-0.469-1.57-0.469c-0.55,0-0.964,0.116-1.241,0.349
				c-0.278,0.233-0.418,0.517-0.418,0.85c0,0.244,0.115,0.463,0.345,0.657c0.223,0.202,0.751,0.39,1.586,0.563
				c2.065,0.445,3.545,0.896,4.438,1.351s1.544,1.021,1.951,1.695c0.406,0.674,0.609,1.429,0.61,2.264
				c-0.001,0.98-0.271,1.885-0.814,2.712c-0.542,0.828-1.3,1.455-2.274,1.883c-0.974,0.428-2.201,0.642-3.682,0.642
				c-2.602,0-4.402-0.5-5.404-1.502C597.853,132.266,597.285,130.993,597.153,129.449"/>
			<path clip-path="url(#SVGID_8_)" fill="#FFFFFF" d="M597.153,129.449l-0.027-0.426l4.895-0.307l0.053,0.395
				c0.09,0.685,0.275,1.168,0.508,1.462l-0.001-0.001c0.408,0.51,0.94,0.758,1.75,0.765c0.612-0.001,1.018-0.142,1.28-0.37
				c0.294-0.262,0.396-0.49,0.4-0.778l0,0c-0.005-0.267-0.101-0.487-0.381-0.747c-0.101-0.094-0.351-0.237-0.727-0.373
				c-0.377-0.138-0.879-0.278-1.499-0.415h-0.001h-0.001c-2.108-0.477-3.643-1.103-4.621-1.952l0.001,0.001
				c-0.978-0.84-1.488-1.973-1.482-3.275c-0.001-0.869,0.256-1.701,0.753-2.46c0.507-0.779,1.268-1.382,2.241-1.806
				c0.999-0.435,2.304-0.635,3.933-0.636c2.004,0.001,3.582,0.368,4.717,1.168c1.142,0.806,1.808,2.102,2.008,3.766l0.056,0.452
				l-5.291,0.31l-0.064-0.376c-0.108-0.628-0.323-1.021-0.597-1.245c-0.28-0.231-0.692-0.371-1.295-0.372h-0.004h0.001
				c-0.493,0-0.801,0.107-0.967,0.25c-0.199,0.175-0.259,0.311-0.265,0.522c0.004,0.103,0.03,0.187,0.193,0.332l0.005,0.004
				l0.006,0.005c0.034,0.035,0.183,0.125,0.419,0.206c0.237,0.084,0.562,0.171,0.967,0.256h0.001l0.002,0
				c2.084,0.45,3.583,0.901,4.543,1.388c0.945,0.481,1.665,1.097,2.122,1.855c0.448,0.741,0.673,1.581,0.672,2.484v0.005v0.005
				l-0.401-0.01h0.401v0.01l-0.401-0.01h0.401c0.001,1.06-0.298,2.055-0.884,2.946c-0.588,0.898-1.42,1.584-2.46,2.04
				c-1.047,0.46-2.332,0.677-3.854,0.678c-2.65-0.004-4.562-0.495-5.706-1.627c-1.075-1.072-1.688-2.457-1.824-4.083l-0.037-0.436
				l0.436-0.027L597.153,129.449l0.426-0.037c0.128,1.461,0.649,2.622,1.576,3.553c0.858,0.871,2.55,1.381,5.103,1.377
				c1.44,0,2.61-0.209,3.51-0.605c0.908-0.4,1.592-0.969,2.089-1.726c0.499-0.763,0.743-1.576,0.744-2.478v-0.011l0.428,0.01h-0.428
				c-0.001-0.766-0.184-1.435-0.549-2.043c-0.356-0.591-0.937-1.105-1.779-1.535c-0.827-0.424-2.287-0.875-4.335-1.314l0.003,0
				c-0.43-0.09-0.786-0.184-1.078-0.287c-0.292-0.106-0.52-0.211-0.707-0.378l0.287-0.317l-0.276,0.326
				c-0.297-0.244-0.499-0.599-0.495-0.983c-0.006-0.456,0.212-0.886,0.57-1.178c0.39-0.324,0.91-0.448,1.516-0.449h0.001h0.002
				c0.729,0,1.362,0.174,1.839,0.567c0.484,0.401,0.767,1.01,0.896,1.759l-0.422,0.073l-0.024-0.427l4.454-0.261l0.025,0.426
				l-0.425,0.052c-0.188-1.508-0.744-2.524-1.653-3.172c-0.917-0.653-2.319-1.013-4.223-1.012c-1.558-0.001-2.76,0.199-3.59,0.564
				c-0.855,0.375-1.465,0.871-1.868,1.49c-0.415,0.639-0.613,1.291-0.614,1.994c0.006,1.09,0.385,1.925,1.188,2.63l0.001,0l0.001,0
				c0.788,0.694,2.209,1.307,4.246,1.762l-0.002,0c0.646,0.142,1.179,0.289,1.609,0.446c0.431,0.16,0.758,0.321,1.005,0.54
				c0.415,0.367,0.667,0.855,0.663,1.382l0,0c0.005,0.547-0.259,1.053-0.695,1.423c-0.468,0.405-1.103,0.58-1.84,0.579
				c-0.998,0.007-1.857-0.363-2.422-1.091l-0.001-0.001c-0.366-0.471-0.577-1.1-0.682-1.876l0.424-0.057l0.026,0.427l-4.496,0.281
				L597.153,129.449l0.426-0.037L597.153,129.449z"/>
			<polygon clip-path="url(#SVGID_8_)" fill="#E00000" points="611.175,118.955 623.84,118.955 623.84,122.22 615.911,122.22 
				615.911,124.65 623.266,124.65 623.266,127.77 615.911,127.77 615.911,130.785 624.069,130.785 624.069,134.248 611.175,134.248 
							"/>
			<polygon clip-path="url(#SVGID_8_)" fill="#FFFFFF" points="611.175,118.955 611.175,118.527 624.268,118.527 624.268,122.647 
				616.339,122.647 616.339,124.223 623.693,124.223 623.693,128.197 616.339,128.197 616.339,130.357 624.497,130.357 
				624.497,134.675 610.748,134.675 610.748,118.527 611.175,118.527 611.175,118.955 611.603,118.955 611.603,133.821 
				623.642,133.821 623.642,131.212 615.484,131.212 615.484,127.342 622.839,127.342 622.839,125.078 615.484,125.078 
				615.484,121.792 623.412,121.792 623.412,119.382 611.175,119.382 611.175,118.955 611.603,118.955 			"/>
		</g>
	</g>
	<g>
		<defs>
			<rect id="SVGID_9_" x="562.503" y="219.291" width="67.001" height="49.738"/>
		</defs>
		<clipPath id="SVGID_10_">
			<use xlink:href="#SVGID_9_"  overflow="visible"/>
		</clipPath>
		<g clip-path="url(#SVGID_10_)">
			<defs>
				<rect id="SVGID_11_" x="562.503" y="219.291" width="67.001" height="49.738"/>
			</defs>
			<clipPath id="SVGID_12_">
				<use xlink:href="#SVGID_11_"  overflow="visible"/>
			</clipPath>
			<path clip-path="url(#SVGID_12_)" fill="#FFFFFF" d="M589.341,255.507c-0.634,0.716-1.119,1.36-1.457,1.933
				c-0.337,0.572-0.506,1.032-0.506,1.38c0,0.552,0.205,0.94,0.613,1.166c0.409,0.225,1.196,0.337,2.362,0.337h2.944v4.785h-21.93
				v-4.785h2.086c1.227,0,2.213-0.184,2.959-0.552c0.747-0.368,1.682-1.207,2.807-2.515l12.054-13.679l-9.906-12.452
				c-1.063-1.329-2.045-2.229-2.945-2.699c-0.899-0.47-1.993-0.705-3.281-0.705h-2.146v-4.754h22.297v4.754h-2.883
				c-0.593,0-1.043,0.107-1.35,0.322c-0.307,0.215-0.46,0.527-0.46,0.936c0,0.286,0.076,0.578,0.229,0.874
				c0.153,0.297,0.414,0.66,0.782,1.089l5.521,6.717l6.717-7.023c0.308-0.307,0.553-0.624,0.736-0.951
				c0.185-0.327,0.276-0.603,0.276-0.828c0-0.368-0.23-0.649-0.69-0.844c-0.46-0.194-1.15-0.291-2.07-0.291h-2.453v-4.754h19.782
				v4.754h-2.27c-1.615,0-3.813,1.533-6.594,4.601l-0.062,0.061l-9.293,10.183l10.673,13.311c1.677,2.086,2.949,3.348,3.818,3.788
				c0.869,0.439,2.111,0.659,3.727,0.659h1.871v4.785h-24.169v-4.785h2.884c1.022,0,1.769-0.087,2.238-0.261
				c0.471-0.174,0.706-0.465,0.706-0.874c0-0.307-0.062-0.629-0.185-0.966c-0.122-0.337-0.307-0.659-0.552-0.966l-6.87-8.68
				L589.341,255.507z"/>
			<path clip-path="url(#SVGID_12_)" d="M589.341,255.507l0.319,0.283c-0.621,0.701-1.091,1.327-1.408,1.866l0,0
				c-0.321,0.538-0.452,0.953-0.447,1.163c0,0.224,0.042,0.387,0.104,0.507c0.064,0.119,0.148,0.207,0.288,0.285
				c0.263,0.156,1.022,0.291,2.156,0.285h3.371v5.638h-22.783v-5.638h2.513c1.185,0,2.108-0.181,2.771-0.508
				c0.647-0.314,1.567-1.122,2.672-2.41l0.001-0.002l11.819-13.413l-9.685-12.172l0.001,0.001c-1.041-1.303-1.993-2.163-2.809-2.587
				c-0.824-0.431-1.847-0.657-3.084-0.657h-2.574v-5.608h23.151v5.608h-3.31c-0.544-0.001-0.908,0.104-1.104,0.245
				c-0.194,0.146-0.269,0.281-0.278,0.585c0,0.209,0.055,0.431,0.183,0.678v0c0.128,0.249,0.371,0.593,0.727,1.007l0.003,0.003
				l5.218,6.348l6.388-6.679l0.003-0.003c0.283-0.283,0.504-0.57,0.666-0.858c0.166-0.291,0.225-0.511,0.222-0.619l0,0
				c-0.003-0.095-0.021-0.146-0.076-0.217c-0.056-0.069-0.167-0.155-0.354-0.233c-0.366-0.158-1.015-0.26-1.904-0.258h-2.88v-5.608
				h20.636v5.608h-2.696h0.001h-0.007c-0.669-0.003-1.556,0.333-2.614,1.075c-1.059,0.739-2.283,1.869-3.658,3.386l-0.007,0.008
				l-0.062,0.062l-9.04,9.906l10.444,13.026v0c1.654,2.068,2.936,3.31,3.678,3.674c0.772,0.394,1.957,0.615,3.534,0.614h2.298v5.638
				h-25.022v-5.638h3.311c0.996,0.002,1.713-0.091,2.091-0.234c0.186-0.068,0.29-0.148,0.345-0.216
				c0.054-0.07,0.079-0.134,0.081-0.257c0-0.25-0.049-0.521-0.158-0.82l0,0c-0.105-0.29-0.265-0.571-0.483-0.845l-0.001-0.001
				l-6.551-8.276l-5.676,6.544l-0.002,0.001L589.341,255.507l-0.322-0.279l6.349-7.321l7.19,9.083l-0.002-0.001
				c0.271,0.339,0.48,0.702,0.62,1.086v0c0.137,0.376,0.21,0.748,0.21,1.112c0.002,0.285-0.09,0.572-0.271,0.793
				c-0.18,0.223-0.428,0.376-0.713,0.481c-0.562,0.205-1.339,0.285-2.387,0.287h-2.456v3.931h23.314v-3.931h-1.444
				c-1.653-0.001-2.954-0.219-3.919-0.705c-0.996-0.514-2.26-1.798-3.959-3.901l-10.902-13.596l9.546-10.46l0.068-0.068l0.303,0.302
				l-0.316-0.287c1.402-1.546,2.664-2.716,3.801-3.512c1.138-0.792,2.157-1.225,3.104-1.229h0.005h1.844v-3.9h-18.929v3.9h2.026
				c0.951,0.002,1.683,0.094,2.236,0.325c0.273,0.116,0.508,0.268,0.683,0.479c0.175,0.21,0.271,0.484,0.269,0.757l0,0
				c-0.003,0.342-0.128,0.674-0.331,1.037c-0.206,0.366-0.476,0.713-0.806,1.043l-0.303-0.302l0.309,0.295l-7.049,7.372
				l-5.826-7.089l0.329-0.271l-0.324,0.278c-0.38-0.445-0.658-0.826-0.837-1.17l0,0c-0.179-0.345-0.278-0.707-0.277-1.07
				c-0.01-0.513,0.223-1.002,0.642-1.285c0.417-0.289,0.952-0.398,1.595-0.399h2.456v-3.9h-21.443v3.9h1.72
				c1.339,0,2.505,0.245,3.479,0.754c0.983,0.516,1.994,1.456,3.08,2.811l10.13,12.733l-12.29,13.947l-0.32-0.282l0.324,0.278
				c-1.146,1.328-2.097,2.198-2.941,2.62c-0.831,0.408-1.88,0.595-3.148,0.596h-1.659v3.931h21.075v-3.931h-2.517
				c-1.197-0.006-2.013-0.096-2.567-0.39c-0.27-0.146-0.492-0.366-0.633-0.635c-0.142-0.269-0.202-0.576-0.202-0.904
				c0.006-0.485,0.212-0.99,0.565-1.597l0,0c0.357-0.606,0.858-1.269,1.505-1.999L589.341,255.507l-0.322-0.279L589.341,255.507z"/>
			<path clip-path="url(#SVGID_12_)" fill="#E00000" d="M568.749,236.192h8.847c1.474,0,2.605,0.365,3.396,1.095
				c0.789,0.73,1.184,1.634,1.184,2.712c0,0.904-0.281,1.68-0.845,2.327c-0.376,0.431-0.925,0.772-1.648,1.022
				c1.099,0.265,1.907,0.718,2.426,1.361c0.518,0.644,0.777,1.452,0.777,2.426c0,0.792-0.185,1.505-0.553,2.139
				c-0.369,0.633-0.873,1.133-1.514,1.502c-0.396,0.229-0.994,0.396-1.794,0.501c-1.063,0.139-1.77,0.208-2.117,0.208h-8.158
				V236.192z M573.517,242.19h2.055c0.737,0,1.25-0.127,1.539-0.381c0.288-0.254,0.433-0.621,0.433-1.101
				c0-0.445-0.145-0.793-0.433-1.043c-0.289-0.25-0.791-0.375-1.508-0.375h-2.086V242.19z M573.517,248.199h2.409
				c0.814,0,1.388-0.145,1.722-0.433s0.501-0.676,0.501-1.163c0-0.452-0.165-0.815-0.496-1.09c-0.33-0.275-0.909-0.412-1.736-0.412
				h-2.399V248.199z"/>
			<path clip-path="url(#SVGID_12_)" fill="#FFFFFF" d="M568.749,236.192v-0.427h8.847c1.54-0.001,2.795,0.385,3.686,1.209
				c0.87,0.798,1.326,1.843,1.321,3.026c0.003,0.992-0.319,1.887-0.95,2.607c-0.439,0.504-1.059,0.878-1.831,1.146l-0.14-0.404
				l0.1-0.416c1.158,0.278,2.063,0.771,2.659,1.509c0.587,0.727,0.873,1.646,0.871,2.694c0.001,0.858-0.202,1.653-0.61,2.354
				c-0.404,0.695-0.968,1.254-1.669,1.657l0.001,0c-0.48,0.276-1.123,0.445-1.953,0.555l0,0c-1.073,0.14-1.777,0.211-2.173,0.212
				h-8.586v-16.148h0.428V236.192h0.427v14.866h7.731c0.299,0.001,1.007-0.066,2.062-0.205h0.001
				c0.769-0.099,1.322-0.263,1.635-0.447l0.001,0l0,0c0.578-0.334,1.023-0.776,1.356-1.347c0.329-0.565,0.494-1.196,0.495-1.923
				c-0.002-0.9-0.233-1.597-0.683-2.158c-0.44-0.548-1.153-0.963-2.192-1.214l-1.42-0.341l1.38-0.478
				c0.675-0.233,1.154-0.541,1.466-0.899c0.496-0.574,0.737-1.23,0.74-2.046c-0.006-0.973-0.339-1.736-1.047-2.398
				c-0.688-0.636-1.697-0.98-3.105-0.982h-8.847V236.192h0.427H568.749z M573.517,242.19v-0.427h2.057h0.003l-0.004,0.361v-0.361
				h0.004l-0.004,0.361v-0.361c0.691,0.005,1.112-0.136,1.256-0.274c0.181-0.164,0.283-0.381,0.288-0.78
				c-0.006-0.356-0.099-0.552-0.286-0.721v0c-0.146-0.139-0.557-0.276-1.228-0.271h-1.659v2.473H573.517v-0.427V242.19h-0.428
				v-3.328h2.514c0.763,0.005,1.357,0.118,1.788,0.48l0,0c0.39,0.333,0.585,0.832,0.58,1.366c0.005,0.561-0.182,1.078-0.578,1.421
				c-0.435,0.37-1.038,0.482-1.82,0.487h-0.006l0.005-0.427v0.427h-2.482v-0.427H573.517z M573.517,248.199v-0.427h2.409
				c0.768,0.004,1.248-0.15,1.442-0.329c0.237-0.212,0.347-0.448,0.353-0.84c-0.007-0.349-0.105-0.557-0.341-0.762
				c-0.188-0.167-0.681-0.318-1.464-0.313h-1.973v2.671H573.517v-0.427V248.199h-0.428v-3.526h2.827
				c0.871,0.005,1.536,0.128,2.01,0.511c0.425,0.345,0.656,0.863,0.649,1.418c0.006,0.583-0.219,1.122-0.648,1.486
				c-0.473,0.399-1.141,0.533-2.001,0.537h-2.837v-0.427H573.517z"/>
			<path clip-path="url(#SVGID_12_)" fill="#E00000" d="M592.572,248.961h-5.383l-0.741,2.524h-4.83l5.748-15.293h5.153
				l5.748,15.293h-4.944L592.572,248.961z M591.581,245.654l-1.69-5.498l-1.68,5.498H591.581z"/>
			<path clip-path="url(#SVGID_12_)" fill="#FFFFFF" d="M592.572,248.961v0.427h-5.063l-0.74,2.524h-5.768l6.069-16.148h5.745
				l6.069,16.148h-5.881l-0.842-2.83L592.572,248.961v0.427V248.961l0.409-0.122l0.66,2.219h4.009l-5.427-14.439h-4.562
				l-5.427,14.439h3.893l0.741-2.524h6.021l0.091,0.305L592.572,248.961z M591.581,245.654l-0.408,0.125l-1.28-4.165l-1.104,3.612
				h2.792V245.654l-0.408,0.125L591.581,245.654v0.427h-3.947l2.256-7.383l2.27,7.383h-0.578V245.654z"/>
			<path clip-path="url(#SVGID_12_)" fill="#E00000" d="M597.153,246.687l4.496-0.282c0.098,0.73,0.296,1.287,0.595,1.669
				c0.486,0.619,1.183,0.928,2.086,0.928c0.675,0,1.195-0.158,1.56-0.475c0.365-0.316,0.548-0.683,0.548-1.101
				c0-0.396-0.174-0.751-0.521-1.064s-1.154-0.609-2.42-0.887c-2.072-0.466-3.551-1.085-4.434-1.857
				c-0.891-0.772-1.336-1.756-1.336-2.953c0-0.786,0.229-1.528,0.684-2.227c0.455-0.699,1.141-1.249,2.056-1.648
				c0.914-0.4,2.168-0.6,3.761-0.6c1.954,0,3.444,0.363,4.47,1.09c1.025,0.727,1.636,1.883,1.831,3.468l-4.455,0.261
				c-0.118-0.689-0.366-1.189-0.745-1.502c-0.38-0.313-0.903-0.469-1.57-0.469c-0.55,0-0.964,0.116-1.241,0.349
				c-0.278,0.233-0.418,0.517-0.418,0.85c0,0.244,0.115,0.463,0.345,0.657c0.223,0.202,0.751,0.39,1.586,0.563
				c2.065,0.445,3.545,0.896,4.438,1.351s1.544,1.021,1.951,1.695c0.406,0.674,0.609,1.429,0.61,2.264
				c-0.001,0.98-0.271,1.885-0.814,2.712c-0.542,0.828-1.3,1.455-2.274,1.883c-0.974,0.428-2.201,0.642-3.682,0.642
				c-2.602,0-4.402-0.5-5.404-1.502C597.853,249.503,597.285,248.23,597.153,246.687"/>
			<path clip-path="url(#SVGID_12_)" fill="#FFFFFF" d="M597.153,246.687l-0.027-0.426l4.895-0.307l0.053,0.395
				c0.09,0.685,0.275,1.168,0.508,1.462l-0.001-0.001c0.408,0.51,0.94,0.758,1.75,0.765c0.612-0.001,1.018-0.142,1.28-0.37
				c0.294-0.262,0.396-0.49,0.4-0.778l0,0c-0.005-0.267-0.101-0.487-0.381-0.747c-0.101-0.094-0.351-0.237-0.727-0.373
				c-0.377-0.138-0.879-0.278-1.499-0.415h-0.001h-0.001c-2.108-0.477-3.643-1.103-4.621-1.952l0.001,0.001
				c-0.978-0.84-1.488-1.973-1.482-3.275c-0.001-0.869,0.256-1.701,0.753-2.46c0.507-0.779,1.268-1.382,2.241-1.806
				c0.999-0.435,2.304-0.635,3.933-0.636c2.004,0.001,3.582,0.368,4.717,1.168c1.142,0.806,1.808,2.102,2.008,3.766l0.056,0.452
				l-5.291,0.31l-0.064-0.376c-0.108-0.628-0.323-1.021-0.597-1.245c-0.28-0.232-0.693-0.371-1.298-0.372
				c-0.493,0-0.801,0.107-0.967,0.25c-0.199,0.175-0.259,0.311-0.265,0.522c0.004,0.103,0.03,0.187,0.193,0.332l0.005,0.005
				l0.006,0.004c0.034,0.035,0.183,0.125,0.419,0.206c0.237,0.084,0.562,0.171,0.967,0.256h0.002l0.001,0
				c2.084,0.45,3.583,0.901,4.543,1.388c0.945,0.481,1.665,1.097,2.122,1.855c0.448,0.741,0.673,1.581,0.672,2.484v0.005v0.005
				l-0.401-0.01h0.401v0.01l-0.401-0.01h0.401c0.001,1.06-0.298,2.055-0.884,2.946c-0.588,0.898-1.42,1.584-2.46,2.04
				c-1.047,0.46-2.332,0.677-3.854,0.678c-2.65-0.004-4.562-0.495-5.706-1.627c-1.075-1.072-1.688-2.457-1.824-4.083l-0.037-0.436
				l0.436-0.027L597.153,246.687l0.426-0.037c0.128,1.461,0.649,2.622,1.576,3.553c0.858,0.871,2.55,1.381,5.103,1.377
				c1.44,0,2.61-0.209,3.51-0.605c0.908-0.4,1.592-0.969,2.089-1.726c0.499-0.763,0.743-1.576,0.744-2.478v-0.011l0.428,0.01h-0.428
				c-0.001-0.766-0.184-1.435-0.549-2.043c-0.356-0.591-0.937-1.105-1.779-1.535c-0.827-0.424-2.287-0.875-4.335-1.314l0.003,0
				c-0.43-0.09-0.786-0.184-1.078-0.287c-0.292-0.106-0.52-0.211-0.707-0.378l0.287-0.317l-0.276,0.326
				c-0.297-0.244-0.499-0.599-0.495-0.983c-0.006-0.455,0.212-0.886,0.57-1.178c0.39-0.324,0.91-0.448,1.516-0.449
				c0.73,0,1.364,0.173,1.842,0.567c0.484,0.401,0.767,1.01,0.896,1.76l-0.422,0.072l-0.024-0.427l4.454-0.261l0.025,0.426
				l-0.425,0.052c-0.188-1.508-0.744-2.524-1.653-3.172c-0.917-0.653-2.319-1.013-4.223-1.012c-1.558-0.001-2.76,0.199-3.59,0.564
				c-0.855,0.375-1.465,0.872-1.868,1.49c-0.415,0.639-0.613,1.291-0.614,1.994c0.006,1.09,0.385,1.925,1.188,2.63l0.001,0l0.001,0
				c0.788,0.694,2.209,1.307,4.246,1.762l-0.002,0c0.646,0.142,1.179,0.289,1.609,0.446c0.431,0.16,0.758,0.321,1.005,0.54
				c0.415,0.367,0.667,0.855,0.663,1.382l0,0c0.005,0.547-0.259,1.053-0.695,1.423c-0.468,0.405-1.103,0.58-1.84,0.579
				c-0.998,0.007-1.857-0.363-2.422-1.091l-0.001-0.001c-0.366-0.471-0.577-1.1-0.682-1.876l0.424-0.057l0.026,0.427l-4.496,0.281
				L597.153,246.687l0.426-0.037L597.153,246.687z"/>
			<polygon clip-path="url(#SVGID_12_)" fill="#E00000" points="611.175,236.192 623.84,236.192 623.84,239.457 615.911,239.457 
				615.911,241.888 623.266,241.888 623.266,245.007 615.911,245.007 615.911,248.022 624.069,248.022 624.069,251.485 
				611.175,251.485 			"/>
			<polygon clip-path="url(#SVGID_12_)" fill="#FFFFFF" points="611.175,236.192 611.175,235.765 624.268,235.765 624.268,239.884 
				616.339,239.884 616.339,241.46 623.693,241.46 623.693,245.434 616.339,245.434 616.339,247.595 624.497,247.595 
				624.497,251.913 610.748,251.913 610.748,235.765 611.175,235.765 611.175,236.192 611.603,236.192 611.603,251.058 
				623.642,251.058 623.642,248.449 615.484,248.449 615.484,244.58 622.839,244.58 622.839,242.315 615.484,242.315 
				615.484,239.03 623.412,239.03 623.412,236.619 611.175,236.619 611.175,236.192 611.603,236.192 			"/>
		</g>
	</g>
</g>
<g>
	<text transform="matrix(1 0 0 1 557.4961 366.0879)"><tspan x="0" y="0" fill="#E6E6E6" font-family="'TheSerif-Bold'" font-size="21">my nice</tspan><tspan x="10.668" y="25.2" fill="#E6E6E6" font-family="'TheSerif-Bold'" font-size="21">client</tspan></text>
	<g id="computer_2_">
		<polygon fill="#808080" points="503,386.088 509,374.088 545,374.088 551,386.088 		"/>
		<path fill="#808080" d="M509,344.088v27h36v-27H509z M542,368.088h-30v-21h30V368.088z"/>
	</g>
</g>
<path fill="#999999" d="M68.5,381.636c0-1.262,0-2.524,0-3.786c0.25-0.154,0.186-0.436,0.23-0.655
	c1.218-6.154,6.663-10.548,12.961-10.427c0.369,0.007,0.584-0.021,0.743-0.434c2.094-5.423,7.724-8.983,13.721-8.101
	c0.454,0.067,0.665-0.076,0.899-0.456c3.819-6.197,10.546-9.257,17.723-8.08c8.252,1.353,14.518,8.871,14.3,17.194
	c-0.013,0.494,0.122,0.672,0.558,0.856c3.661,1.542,6.179,4.181,7.474,7.949c0.257,0.747,0.426,1.523,0.635,2.288
	c0,1.217,0,2.433,0,3.65c-0.266,0.229-0.208,0.566-0.266,0.854c-1.15,5.772-6.575,10.236-12.454,10.236c-14.557,0-29.113,0-43.669,0
	c-5.967,0-11.285-4.275-12.565-10.103C68.716,382.288,68.733,381.925,68.5,381.636z"/>
<g>
	<text transform="matrix(1 0 0 1 140.3115 367.0879)" fill="#E6E6E6" font-family="'TheSerif-Bold'" font-size="21">webdav</text>
</g>
<path fill="#999999" d="M259.5,376.636c0-1.262,0-2.524,0-3.786c0.25-0.154,0.186-0.436,0.23-0.655
	c1.218-6.154,6.663-10.548,12.961-10.427c0.369,0.007,0.584-0.021,0.743-0.434c2.094-5.423,7.724-8.983,13.721-8.101
	c0.454,0.067,0.665-0.076,0.899-0.456c3.819-6.197,10.546-9.257,17.723-8.08c8.252,1.353,14.519,8.871,14.301,17.194
	c-0.013,0.494,0.121,0.672,0.559,0.856c3.66,1.542,6.178,4.181,7.473,7.949c0.258,0.747,0.426,1.523,0.635,2.288
	c0,1.217,0,2.433,0,3.65c-0.266,0.229-0.207,0.566-0.266,0.854c-1.15,5.772-6.574,10.236-12.453,10.236c-14.557,0-29.114,0-43.67,0
	c-5.967,0-11.285-4.275-12.565-10.103C259.716,377.288,259.733,376.925,259.5,376.636z"/>
<g>
	<text transform="matrix(1 0 0 1 330.9966 362.0879)"><tspan x="0" y="0" fill="#E6E6E6" font-family="'TheSerif-Bold'" font-size="21">my nice</tspan><tspan x="-15.676" y="25.2" fill="#E6E6E6" font-family="'TheSerif-Bold'" font-size="21">webservice</tspan></text>
</g>
<line fill="none" stroke="#808080" stroke-width="5" stroke-miterlimit="10" x1="189" y1="238.5" x2="138" y2="344.088"/>
<line fill="none" stroke="#808080" stroke-width="5" stroke-miterlimit="10" x1="305.411" y1="242.344" x2="330.41" y2="341"/>
<line fill="none" stroke="#808080" stroke-width="5" stroke-miterlimit="10" x1="367.465" y1="189.763" x2="495.996" y2="233.555"/>
<line fill="none" stroke="#808080" stroke-width="5" stroke-miterlimit="10" x1="367.569" y1="238.647" x2="489" y2="328"/>
<line fill="none" stroke="#808080" stroke-width="5" stroke-miterlimit="10" x1="368.261" y1="154.826" x2="495.918" y2="119.557"/>
</svg>
