<?xml version="1.0" encoding="utf-8"?>
<!-- Generator: Adobe Illustrator 16.0.4, SVG Export Plug-In . SVG Version: 6.00 Build 0)  -->
<!DOCTYPE svg PUBLIC "-//W3C//DTD SVG 1.1//EN" "http://www.w3.org/Graphics/SVG/1.1/DTD/svg11.dtd">
<svg version="1.1" id="Calque_1" xmlns="http://www.w3.org/2000/svg" xmlns:xlink="http://www.w3.org/1999/xlink" x="0px" y="0px"
	 width="1024px" height="768px" viewBox="0 0 1024 768" enable-background="new 0 0 1024 768" xml:space="preserve">
<g>
	<g>
		<g>
			<g>
				<path fill="#808080" d="M440.338,227.583H416.07c-0.627,0-1.135,0.507-1.135,1.134v11.864c0,0.627,0.508,1.136,1.135,1.136
					h9.467v14.743c0,0-2.127,0.725-8.004,0.725c-6.934,0-16.619-2.535-16.619-23.833c0-21.304,10.086-24.107,19.555-24.107
					c8.197,0,11.729,1.444,13.977,2.14c0.703,0.216,1.357-0.487,1.357-1.113l2.707-11.465c0-0.292-0.1-0.646-0.434-0.885
					c-0.912-0.652-6.479-3.766-20.543-3.766c-16.199,0-32.82,6.893-32.82,40.026c0,33.135,19.029,38.073,35.064,38.073
					c13.273,0,21.328-5.672,21.328-5.672c0.33-0.184,0.365-0.648,0.365-0.859v-37.006
					C441.471,228.089,440.965,227.583,440.338,227.583z"/>
			</g>
			<g>
				<path fill="#808080" d="M565.406,198.125c0-0.632-0.5-1.142-1.127-1.142h-13.666c-0.623,0-1.131,0.51-1.131,1.142
					c0,0.003,0.004,26.407,0.004,26.407h-21.299v-26.407c0-0.632-0.502-1.142-1.129-1.142h-13.662c-0.621,0-1.129,0.51-1.129,1.142
					v71.502c0,0.633,0.508,1.145,1.129,1.145h13.662c0.627,0,1.129-0.512,1.129-1.145v-30.583h21.299c0,0-0.037,30.582-0.037,30.583
					c0,0.633,0.508,1.145,1.131,1.145h13.697c0.627,0,1.127-0.512,1.129-1.145V198.125z"/>
			</g>
			<g>
				<g>
					<path fill="#808080" d="M466.123,207.507c0-4.92-3.943-8.896-8.812-8.896c-4.861,0-8.809,3.977-8.809,8.896
						c0,4.915,3.947,8.902,8.809,8.902C462.18,216.41,466.123,212.422,466.123,207.507z"/>
					<path fill="#808080" d="M465.146,254.544c0-1.833,0-33.006,0-33.006c0-0.627-0.506-1.139-1.131-1.139h-13.621
						c-0.625,0-1.184,0.644-1.184,1.271c0,0,0,39.716,0,47.287c0,1.391,0.863,1.805,1.986,1.805c0,0,5.812,0,12.271,0
						c1.346,0,1.678-0.662,1.678-1.826C465.146,266.4,465.146,256.471,465.146,254.544z"/>
				</g>
			</g>
			<g>
				<path fill="#808080" d="M617.336,220.506h-13.559c-0.621,0-1.127,0.514-1.127,1.144v35.061c0,0-3.447,2.52-8.336,2.52
					s-6.188-2.219-6.188-7.007c0-4.793,0-30.573,0-30.573c0-0.63-0.506-1.144-1.127-1.144h-13.76c-0.623,0-1.131,0.514-1.131,1.144
					c0,0,0,18.671,0,32.89c0,14.218,7.924,17.699,18.826,17.699c8.943,0,16.156-4.941,16.156-4.941s0.342,2.605,0.498,2.914
					c0.156,0.307,0.561,0.619,0.998,0.619l8.756-0.041c0.621,0,1.129-0.512,1.129-1.141l-0.004-47.999
					C618.469,221.02,617.961,220.506,617.336,220.506z"/>
			</g>
			<g>
				<g>
					<path fill="#808080" d="M654.396,218.9c-7.701,0-12.938,3.438-12.938,3.438v-24.213c0-0.632-0.504-1.142-1.129-1.142h-13.703
						c-0.623,0-1.129,0.51-1.129,1.142v71.502c0,0.633,0.506,1.145,1.129,1.145h9.51c0.428,0,0.75-0.221,0.99-0.607
						c0.236-0.383,0.578-3.297,0.578-3.297s5.604,5.311,16.211,5.311c12.453,0,19.594-6.316,19.594-28.357
						C673.51,221.781,662.104,218.9,654.396,218.9z M649.049,259.186c-4.703-0.143-7.893-2.275-7.893-2.275v-22.644
						c0,0,3.146-1.929,7.01-2.273c4.881-0.438,9.586,1.037,9.586,12.687C657.752,256.961,655.629,259.385,649.049,259.186z"/>
				</g>
			</g>
			<g>
				<path fill="#808080" d="M504.418,220.393h-10.25c0,0-0.016-13.539-0.016-13.541c0-0.514-0.264-0.77-0.855-0.77h-13.969
					c-0.543,0-0.834,0.239-0.834,0.761v13.993c0,0-7,1.69-7.475,1.826c-0.471,0.138-0.816,0.571-0.816,1.09v8.794
					c0,0.633,0.504,1.143,1.129,1.143h7.162c0,0,0,9.197,0,21.155c0,15.71,11.021,17.255,18.459,17.255
					c3.398,0,7.461-1.092,8.133-1.338c0.408-0.15,0.641-0.57,0.641-1.025l0.014-9.674c0-0.631-0.533-1.143-1.133-1.143
					c-0.598,0-2.125,0.244-3.699,0.244c-5.035,0-6.74-2.342-6.74-5.373c0-3.027,0-20.103,0-20.103h10.25
					c0.625,0,1.131-0.51,1.131-1.143v-11.015C505.549,220.9,505.043,220.393,504.418,220.393z"/>
			</g>
		</g>
	</g>
	<g>
		<g>
			<path fill-rule="evenodd" clip-rule="evenodd" fill="#808080" d="M324.108,176.931c-25.958,0-47.007,21.045-47.007,47.006
				c0,20.77,13.468,38.387,32.144,44.604c2.351,0.436,3.215-1.02,3.215-2.262c0-1.119-0.045-4.822-0.065-8.752
				c-13.076,2.846-15.838-5.546-15.838-5.546c-2.136-5.433-5.218-6.877-5.218-6.877c-4.263-2.917,0.322-2.857,0.322-2.857
				c4.718,0.331,7.205,4.845,7.205,4.845c4.194,7.186,10.997,5.107,13.679,3.907c0.421-3.038,1.64-5.112,2.985-6.286
				c-10.442-1.188-21.417-5.219-21.417-23.23c0-5.132,1.837-9.326,4.842-12.617c-0.487-1.185-2.095-5.965,0.458-12.44
				c0,0,3.945-1.263,12.929,4.82c3.749-1.043,7.771-1.563,11.767-1.583c3.994,0.02,8.017,0.54,11.774,1.583
				c8.971-6.083,12.915-4.82,12.915-4.82c2.559,6.476,0.949,11.256,0.459,12.44c3.016,3.291,4.84,7.485,4.84,12.617
				c0,18.055-10.998,22.03-21.466,23.193c1.688,1.459,3.189,4.319,3.189,8.704c0,6.291-0.055,11.353-0.055,12.9
				c0,1.252,0.849,2.717,3.229,2.256c18.667-6.221,32.12-23.837,32.12-44.598C371.113,197.976,350.066,176.931,324.108,176.931z"/>
			<path fill="#808080" d="M294.905,244.421c-0.105,0.233-0.473,0.304-0.807,0.145c-0.342-0.154-0.532-0.473-0.422-0.707
				c0.101-0.24,0.47-0.307,0.81-0.146C294.829,243.867,295.022,244.188,294.905,244.421L294.905,244.421z M294.326,243.994"/>
			<path fill="#808080" d="M296.807,246.545c-0.222,0.209-0.661,0.11-0.958-0.217c-0.308-0.328-0.364-0.768-0.137-0.978
				c0.231-0.208,0.655-0.111,0.962,0.217C296.984,245.899,297.042,246.335,296.807,246.545L296.807,246.545z M296.36,246.064"/>
			<path fill="#808080" d="M298.661,249.252c-0.288,0.201-0.758,0.013-1.049-0.405c-0.289-0.419-0.289-0.92,0.006-1.12
				c0.292-0.201,0.755-0.021,1.051,0.394C298.955,248.546,298.955,249.046,298.661,249.252L298.661,249.252z M298.661,249.252"/>
			<path fill="#808080" d="M301.201,251.869c-0.259,0.282-0.807,0.207-1.207-0.181c-0.412-0.379-0.526-0.917-0.267-1.2
				c0.261-0.285,0.812-0.206,1.215,0.179C301.351,251.044,301.476,251.586,301.201,251.869L301.201,251.869z M301.201,251.869"/>
			<path fill="#808080" d="M304.703,253.386c-0.113,0.369-0.642,0.535-1.175,0.378c-0.531-0.16-0.878-0.59-0.771-0.964
				c0.111-0.369,0.643-0.544,1.177-0.375C304.466,252.584,304.815,253.012,304.703,253.386L304.703,253.386z M304.703,253.386"/>
			<path fill="#808080" d="M308.549,253.668c0.014,0.388-0.438,0.709-0.996,0.716c-0.562,0.013-1.018-0.301-1.023-0.684
				c0-0.391,0.442-0.708,1.002-0.719C308.092,252.972,308.549,253.284,308.549,253.668L308.549,253.668z M308.549,253.668"/>
			<path fill="#808080" d="M312.13,253.058c0.065,0.379-0.322,0.768-0.877,0.869c-0.545,0.102-1.05-0.132-1.12-0.507
				c-0.067-0.388,0.326-0.776,0.874-0.877C311.561,252.448,312.059,252.673,312.13,253.058L312.13,253.058z M312.13,253.058"/>
		</g>
	</g>
</g>
<text transform="matrix(1 0 0 1 256.4106 324.853)" fill="#808080" font-family="'TheSansMono-ExtraBold'" font-size="27.4145">https://github.com/synopsx/</text>
</svg>
