<?xml version="1.0" encoding="utf-8"?>
<!-- Generator: Adobe Illustrator 16.0.4, SVG Export Plug-In . SVG Version: 6.00 Build 0)  -->
<!DOCTYPE svg PUBLIC "-//W3C//DTD SVG 1.1//EN" "http://www.w3.org/Graphics/SVG/1.1/DTD/svg11.dtd">
<svg version="1.1" id="Calque_1" xmlns="http://www.w3.org/2000/svg" xmlns:xlink="http://www.w3.org/1999/xlink" x="0px" y="0px"
	 width="800px" height="600px" viewBox="0 0 800 600" enable-background="new 0 0 800 600" xml:space="preserve">
<text transform="matrix(1 0 0 1 276.6523 123.8408)" fill="#ED1E79" font-family="'TheSerif-Bold'" font-size="18.4919">persistance</text>
<text transform="matrix(1 0 0 1 262.3784 248.2051)" fill="#ED1E79" font-family="'TheSerif-Bold'" font-size="19.5079">business logic</text>
<text transform="matrix(1 0 0 1 270.3188 375.8193)" fill="#ED1E79" font-family="'TheSerif-Bold'" font-size="18.4919">presentation</text>
<g>
	<g>
		
			<line fill="none" stroke="#7F7F7F" stroke-width="4" stroke-linecap="round" stroke-miterlimit="10" stroke-dasharray="4,12" x1="324" y1="138" x2="324" y2="212"/>
		<g>
			<path fill="#7F7F7F" d="M323.931,210.765c2.717-2.717,8.089-4.012,11.817-4.118c-5.004,3.725-9.369,8.565-11.817,14.422
				c-2.344-5.856-6.972-10.484-11.817-14.422C316.106,206.967,320.95,207.942,323.931,210.765z"/>
		</g>
	</g>
</g>
<g>
	<g>
		
			<line fill="none" stroke="#7F7F7F" stroke-width="4" stroke-linecap="round" stroke-miterlimit="10" stroke-dasharray="4,12" x1="324" y1="266" x2="324" y2="339"/>
		<g>
			<path fill="#7F7F7F" d="M323.931,338.38c2.717-2.717,8.089-4.012,11.817-4.118c-5.004,3.725-9.369,8.565-11.817,14.422
				c-2.344-5.856-6.972-10.483-11.817-14.422C316.106,334.582,320.95,335.557,323.931,338.38z"/>
		</g>
	</g>
</g>
<text transform="matrix(1 0 0 1 482.7305 240.6963)" opacity="0.6"><tspan x="0" y="0" fill="#E6E6E6" font-family="'TheSerif-Bold'" font-size="18.4919">SQL + PHP</tspan><tspan x="14.072" y="22.19" fill="#E6E6E6" font-family="'TheSerif-Bold'" font-size="18.4919">+ XSLT</tspan></text>
<g opacity="0.6">
	<g>
		<g>
			<path fill="#3FA9F5" d="M480.43,322.677l4.679,15.915l4.683-15.915h3.389h9.301v1.582l-4.776,8.231
				c1.679,0.539,2.948,1.518,3.809,2.938c0.859,1.42,1.292,3.09,1.292,5.004c0,2.367-0.631,4.357-1.89,5.973
				c-1.26,1.613-2.889,2.42-4.891,2.42c-1.506,0-2.818-0.479-3.938-1.436c-1.12-0.958-1.947-2.255-2.484-3.892l2.646-1.097
				c0.389,0.99,0.898,1.771,1.535,2.341c0.635,0.571,1.382,0.855,2.242,0.855c0.902,0,1.667-0.506,2.293-1.518
				s0.936-2.227,0.936-3.647c0-1.572-0.334-2.787-0.999-3.648c-0.775-1.011-1.993-1.519-3.65-1.519h-1.291v-1.549l4.521-7.812
				h-5.457l-0.309,0.528l-6.637,22.393h-0.323l-4.842-16.205l-4.842,16.205h-0.322l-7.749-26.148h3.39l4.682,15.915l3.166-10.718
				l-1.552-5.197H480.43L480.43,322.677z"/>
			<path fill="#E6E6E6" d="M515.939,322.529l0.552,3.339l-1.945,3.718c0,0-0.746-1.578-1.984-2.451
				c-1.046-0.735-1.726-0.896-2.79-0.677c-1.365,0.283-2.914,1.917-3.592,3.932c-0.809,2.409-0.816,3.576-0.844,4.647
				c-0.045,1.717,0.224,2.733,0.224,2.733s-1.18-2.184-1.168-5.382c0.007-2.282,0.364-4.353,1.421-6.395
				c0.93-1.797,2.312-2.873,3.538-2.999c1.267-0.132,2.269,0.48,3.042,1.14c0.812,0.693,1.635,2.211,1.635,2.211L515.939,322.529
				L515.939,322.529z"/>
			<path fill="#E6E6E6" d="M516.182,341.419c0,0-0.86,1.534-1.396,2.126c-0.534,0.592-1.492,1.634-2.675,2.154
				c-1.182,0.521-1.803,0.62-2.973,0.507c-1.168-0.112-2.253-0.788-2.634-1.07c-0.381-0.281-1.352-1.112-1.901-1.887
				c-0.549-0.774-1.41-2.324-1.41-2.324s0.48,1.553,0.78,2.212c0.172,0.378,0.701,1.539,1.454,2.55
				c0.701,0.939,2.063,2.562,4.134,2.929c2.07,0.367,3.494-0.562,3.845-0.788c0.354-0.226,1.095-0.847,1.563-1.35
				c0.492-0.523,0.955-1.192,1.213-1.596c0.186-0.292,0.492-0.887,0.492-0.887L516.182,341.419L516.182,341.419z"/>
		</g>
	</g>
	<path fill="#808080" d="M606.975,334H517c0,3,0,3,0,5h89v69H444v-69h22c0-2,0-2,0-5h-19.967L442,336.989v69.904l4.033,5.106
		h160.941l2.025-5.106v-69.904L606.975,334z"/>
</g>
<text transform="matrix(1 0 0 1 482.9424 370.1289)" opacity="0.6"><tspan x="0" y="0" fill="#E6E6E6" font-family="'TheSerif-Bold'" font-size="18.4919">(X)HTML</tspan><tspan x="76.148" y="0" fill="#E6E6E6" font-family="'TheSerif-BoldExpert'" font-size="18.4919">5</tspan><tspan x="-0.343" y="22.19" fill="#E6E6E6" font-family="'TheSerif-Bold'" font-size="18.4919">JavaScript</tspan></text>
<g opacity="0.6">
	<g>
		<g>
			<path fill="#3FA9F5" d="M480.43,70.701l4.681,15.916l4.681-15.916h3.389h9.301v1.582l-4.776,8.231
				c1.679,0.539,2.948,1.519,3.809,2.938c0.859,1.421,1.292,3.088,1.292,5.003c0,2.368-0.631,4.359-1.89,5.972
				c-1.26,1.614-2.889,2.42-4.891,2.42c-1.506,0-2.818-0.479-3.938-1.436c-1.12-0.958-1.947-2.253-2.484-3.89l2.646-1.097
				c0.389,0.99,0.898,1.771,1.535,2.34c0.635,0.57,1.382,0.854,2.242,0.854c0.902,0,1.667-0.505,2.293-1.517
				c0.626-1.011,0.936-2.227,0.936-3.648c0-1.571-0.334-2.787-0.999-3.648c-0.775-1.01-1.993-1.517-3.65-1.517h-1.291v-1.549
				l4.521-7.813h-5.457l-0.309,0.529l-6.637,22.392h-0.321l-4.843-16.204l-4.842,16.204h-0.323l-7.748-26.148h3.39l4.682,15.916
				l3.165-10.717l-1.551-5.198H480.43L480.43,70.701z"/>
			<path fill="#E6E6E6" d="M515.939,70.553l0.552,3.338l-1.945,3.719c0,0-0.746-1.578-1.984-2.452
				c-1.046-0.735-1.726-0.895-2.79-0.676c-1.365,0.282-2.914,1.917-3.592,3.93c-0.809,2.41-0.816,3.577-0.844,4.648
				c-0.045,1.718,0.224,2.733,0.224,2.733s-1.18-2.183-1.168-5.38c0.007-2.283,0.364-4.353,1.421-6.395
				c0.93-1.796,2.312-2.874,3.538-3c1.267-0.131,2.269,0.479,3.042,1.141c0.812,0.694,1.635,2.211,1.635,2.211L515.939,70.553
				L515.939,70.553z"/>
			<path fill="#E6E6E6" d="M516.182,89.441c0,0-0.86,1.535-1.396,2.128c-0.534,0.591-1.492,1.633-2.675,2.155
				c-1.182,0.52-1.803,0.619-2.973,0.506c-1.168-0.111-2.253-0.788-2.634-1.07c-0.381-0.281-1.352-1.112-1.901-1.887
				c-0.549-0.775-1.41-2.324-1.41-2.324s0.48,1.552,0.78,2.212c0.172,0.379,0.701,1.539,1.454,2.549
				c0.701,0.941,2.063,2.563,4.134,2.929c2.07,0.367,3.494-0.563,3.845-0.789c0.354-0.224,1.095-0.846,1.563-1.348
				c0.492-0.524,0.955-1.193,1.213-1.595c0.186-0.292,0.492-0.888,0.492-0.888L516.182,89.441L516.182,89.441z"/>
		</g>
	</g>
	<path fill="#808080" d="M606.975,82H518c0,3,0,3,0,4h89v69H446V86h21c0-1,0-1,0-4h-20.967L442,85.015v69.902l4.033,2.083h160.941
		l4.025-2.083V85.015L606.975,82z"/>
</g>
<text transform="matrix(1 0 0 1 506.3984 123.8408)" opacity="0.6" fill="#E6E6E6" font-family="'TheSerif-Bold'" font-size="18.4919">XML</text>
<path opacity="0.6" fill="#808080" d="M606,211v66H444v-66H606 M605.481,208H444.298L441,211.206v66.045l3.298,3.749h161.184
	l3.519-3.749v-66.045L605.481,208L605.481,208z"/>
</svg>
