<?xml version="1.0" encoding="utf-8"?>
<!-- Generator: Adobe Illustrator 16.0.4, SVG Export Plug-In . SVG Version: 6.00 Build 0)  -->
<!DOCTYPE svg PUBLIC "-//W3C//DTD SVG 1.1//EN" "http://www.w3.org/Graphics/SVG/1.1/DTD/svg11.dtd">
<svg version="1.1" id="Calque_1" xmlns="http://www.w3.org/2000/svg" xmlns:xlink="http://www.w3.org/1999/xlink" x="0px" y="0px"
	 width="800px" height="600px" viewBox="0 0 800 600" enable-background="new 0 0 800 600" xml:space="preserve">
<text transform="matrix(1 0 0 1 276.6523 123.8408)" fill="#ED1E79" font-family="'TheSerif-Bold'" font-size="18.4919">persistance</text>
<g>
	<g>
		<g>
			<path fill="#3FA9F5" d="M91.898,70.701l4.682,15.915l4.681-15.915h3.389h9.302v1.582l-4.777,8.231
				c1.678,0.538,2.949,1.518,3.809,2.938c0.86,1.42,1.292,3.088,1.292,5.003c0,2.368-0.63,4.359-1.889,5.973
				c-1.26,1.614-2.889,2.42-4.891,2.42c-1.507,0-2.819-0.479-3.938-1.436c-1.12-0.958-1.948-2.254-2.486-3.891l2.646-1.097
				c0.388,0.991,0.899,1.771,1.534,2.34c0.636,0.571,1.383,0.855,2.244,0.855c0.904,0,1.667-0.505,2.292-1.517
				c0.625-1.011,0.936-2.227,0.936-3.648c0-1.571-0.334-2.787-1.001-3.648c-0.775-1.011-1.992-1.518-3.648-1.518h-1.291v-1.549
				l4.519-7.813h-5.455l-0.31,0.529l-6.635,22.392H96.58l-4.843-16.205l-4.842,16.205h-0.323l-7.748-26.148h3.39l4.681,15.915
				l3.164-10.717l-1.549-5.198H91.898L91.898,70.701z"/>
			<path fill="#E6E6E6" d="M127.411,70.553l0.55,3.338l-1.943,3.719c0,0-0.747-1.578-1.986-2.452
				c-1.044-0.735-1.725-0.895-2.79-0.676c-1.366,0.282-2.915,1.917-3.592,3.93c-0.809,2.41-0.815,3.577-0.844,4.648
				c-0.045,1.718,0.225,2.732,0.225,2.732s-1.179-2.183-1.169-5.38c0.007-2.283,0.366-4.353,1.422-6.395
				c0.929-1.796,2.31-2.874,3.536-3c1.268-0.131,2.27,0.479,3.043,1.141c0.812,0.694,1.634,2.211,1.634,2.211L127.411,70.553
				L127.411,70.553z"/>
			<path fill="#E6E6E6" d="M127.651,89.441c0,0-0.859,1.535-1.395,2.128c-0.536,0.591-1.494,1.633-2.676,2.155
				c-1.183,0.521-1.803,0.619-2.972,0.506c-1.168-0.112-2.254-0.789-2.634-1.07c-0.382-0.282-1.353-1.113-1.902-1.888
				c-0.549-0.774-1.408-2.324-1.408-2.324s0.479,1.552,0.778,2.212c0.172,0.379,0.702,1.539,1.454,2.549
				c0.702,0.942,2.064,2.564,4.134,2.93c2.071,0.367,3.494-0.563,3.845-0.789c0.353-0.224,1.096-0.846,1.564-1.348
				c0.492-0.525,0.954-1.194,1.212-1.596c0.187-0.292,0.493-0.887,0.493-0.887L127.651,89.441L127.651,89.441z"/>
		</g>
	</g>
	<path fill="#808080" d="M218.445,82H129c0,3,0,3,0,4h88v69H58V86h20c0-1,0-1,0-4H57.505L55,85.014v69.902L57.505,157h160.94
		l1.555-2.083V85.014L218.445,82z"/>
</g>
<text transform="matrix(1 0 0 1 117.8662 123.8408)" fill="#CCCCCC" font-family="'TheSerif-Bold'" font-size="18.4919">XML</text>
<text transform="matrix(1 0 0 1 262.3784 248.2051)" fill="#ED1E79" font-family="'TheSerif-Bold'" font-size="19.5079">business logic</text>
<g>
	<g>
		<g>
			<path fill="#3FA9F5" d="M91.898,195.064l4.682,15.915l4.681-15.915h3.389h9.302v1.581l-4.777,8.232
				c1.678,0.538,2.949,1.518,3.809,2.938c0.86,1.42,1.292,3.087,1.292,5.003c0,2.368-0.63,4.359-1.889,5.972
				c-1.26,1.614-2.889,2.421-4.891,2.421c-1.507,0-2.819-0.48-3.938-1.437c-1.12-0.957-1.948-2.254-2.486-3.89l2.646-1.099
				c0.388,0.991,0.899,1.772,1.534,2.34c0.636,0.572,1.383,0.855,2.244,0.855c0.904,0,1.667-0.504,2.292-1.516
				c0.625-1.011,0.936-2.228,0.936-3.648c0-1.571-0.334-2.788-1.001-3.648c-0.775-1.011-1.992-1.517-3.648-1.517h-1.291v-1.55
				l4.519-7.813h-5.455l-0.31,0.528l-6.635,22.393H96.58l-4.843-16.206l-4.842,16.206h-0.323l-7.748-26.148h3.39l4.681,15.915
				l3.164-10.718l-1.549-5.197H91.898L91.898,195.064z"/>
			<path fill="#E6E6E6" d="M127.411,194.916l0.55,3.338l-1.943,3.718c0,0-0.747-1.577-1.986-2.45
				c-1.044-0.736-1.725-0.896-2.79-0.676c-1.366,0.282-2.915,1.916-3.592,3.93c-0.809,2.411-0.815,3.576-0.844,4.648
				c-0.045,1.717,0.225,2.732,0.225,2.732s-1.179-2.183-1.169-5.38c0.007-2.282,0.366-4.354,1.422-6.395
				c0.929-1.796,2.31-2.874,3.536-3c1.268-0.131,2.27,0.48,3.043,1.141c0.812,0.694,1.634,2.211,1.634,2.211L127.411,194.916
				L127.411,194.916z"/>
			<path fill="#E6E6E6" d="M127.651,213.804c0,0-0.859,1.535-1.395,2.126c-0.536,0.591-1.494,1.634-2.676,2.155
				c-1.183,0.522-1.803,0.62-2.972,0.507c-1.168-0.111-2.254-0.789-2.634-1.07c-0.382-0.282-1.353-1.114-1.902-1.888
				c-0.549-0.775-1.408-2.325-1.408-2.325s0.479,1.553,0.778,2.212c0.172,0.379,0.702,1.54,1.454,2.549
				c0.702,0.942,2.064,2.564,4.134,2.93c2.071,0.365,3.494-0.563,3.845-0.788c0.353-0.225,1.096-0.847,1.564-1.349
				c0.492-0.525,0.954-1.194,1.212-1.596c0.187-0.292,0.493-0.887,0.493-0.887L127.651,213.804L127.651,213.804z"/>
		</g>
	</g>
	<path fill="#808080" d="M218.445,207H129c0,1,0,2,0,3h88v69H58v-69h20c0-1,0-2,0-3H57.505L55,209.376v69.904l2.505,3.72h160.94
		l1.555-3.72v-69.904L218.445,207z"/>
</g>
<text transform="matrix(1 0 0 1 104.9502 241.7324)"><tspan x="0" y="0" fill="#CCCCCC" font-family="'TheSerif-Bold'" font-size="18.4919">XQuery</tspan><tspan x="4.225" y="22.19" fill="#CCCCCC" font-family="'TheSerif-Bold'" font-size="18.4919">+ XSLT</tspan></text>
<text transform="matrix(1 0 0 1 270.3188 375.8193)" fill="#ED1E79" font-family="'TheSerif-Bold'" font-size="18.4919">presentation</text>
<g>
	<g>
		<g>
			<path fill="#3FA9F5" d="M91.898,322.677l4.682,15.915l4.681-15.915h3.389h9.302v1.582l-4.777,8.231
				c1.678,0.539,2.949,1.518,3.809,2.938c0.86,1.42,1.292,3.09,1.292,5.004c0,2.367-0.63,4.357-1.889,5.973
				c-1.26,1.613-2.889,2.42-4.891,2.42c-1.507,0-2.819-0.479-3.938-1.436c-1.12-0.958-1.948-2.255-2.486-3.892l2.646-1.097
				c0.388,0.99,0.899,1.771,1.534,2.341c0.636,0.571,1.383,0.855,2.244,0.855c0.904,0,1.667-0.506,2.292-1.518
				s0.936-2.227,0.936-3.647c0-1.572-0.334-2.787-1.001-3.648c-0.775-1.011-1.992-1.519-3.648-1.519h-1.291v-1.549l4.519-7.812
				h-5.455l-0.31,0.528l-6.635,22.393H96.58l-4.843-16.205l-4.842,16.205h-0.323l-7.748-26.148h3.39l4.681,15.915l3.164-10.718
				l-1.549-5.197H91.898L91.898,322.677z"/>
			<path fill="#E6E6E6" d="M127.411,322.529l0.55,3.339l-1.943,3.718c0,0-0.747-1.578-1.986-2.451
				c-1.044-0.735-1.725-0.896-2.79-0.677c-1.366,0.283-2.915,1.917-3.592,3.932c-0.809,2.409-0.815,3.576-0.844,4.647
				c-0.045,1.717,0.225,2.733,0.225,2.733s-1.179-2.184-1.169-5.382c0.007-2.282,0.366-4.353,1.422-6.395
				c0.929-1.797,2.31-2.873,3.536-2.999c1.268-0.132,2.27,0.48,3.043,1.14c0.812,0.693,1.634,2.211,1.634,2.211L127.411,322.529
				L127.411,322.529z"/>
			<path fill="#E6E6E6" d="M127.651,341.419c0,0-0.859,1.534-1.395,2.126s-1.494,1.634-2.676,2.154
				c-1.183,0.521-1.803,0.62-2.972,0.507c-1.168-0.112-2.254-0.788-2.634-1.07c-0.382-0.281-1.353-1.112-1.902-1.887
				c-0.549-0.774-1.408-2.324-1.408-2.324s0.479,1.553,0.778,2.212c0.172,0.378,0.702,1.539,1.454,2.55
				c0.702,0.939,2.064,2.562,4.134,2.929c2.071,0.367,3.494-0.562,3.845-0.788c0.353-0.226,1.096-0.847,1.564-1.35
				c0.492-0.523,0.954-1.192,1.212-1.596c0.187-0.292,0.493-0.887,0.493-0.887L127.651,341.419L127.651,341.419z"/>
		</g>
	</g>
	<path fill="#808080" d="M218.445,334H129c0,3,0,3,0,5h88v69H57v-69h21c0-2,0-2,0-5H57.505L54,336.989v69.904L57.505,412h160.94
		l1.555-5.106v-69.904L218.445,334z"/>
</g>
<text transform="matrix(1 0 0 1 94.4102 370.1289)"><tspan x="0" y="0" fill="#CCCCCC" font-family="'TheSerif-Bold'" font-size="18.4919">(X)HTML</tspan><tspan x="76.148" y="0" fill="#CCCCCC" font-family="'TheSerif-BoldExpert'" font-size="18.4919">5</tspan><tspan x="-0.342" y="22.19" fill="#CCCCCC" font-family="'TheSerif-Bold'" font-size="18.4919">JavaScript</tspan></text>
<g>
	<g>
		
			<line fill="none" stroke="#7F7F7F" stroke-width="4" stroke-linecap="round" stroke-miterlimit="10" stroke-dasharray="4,12" x1="324" y1="138" x2="324" y2="212"/>
		<g>
			<path fill="#7F7F7F" d="M323.931,210.765c2.717-2.717,8.089-4.012,11.817-4.118c-5.004,3.725-9.369,8.565-11.817,14.422
				c-2.344-5.856-6.972-10.484-11.817-14.422C316.106,206.967,320.95,207.942,323.931,210.765z"/>
		</g>
	</g>
</g>
<g>
	<g>
		
			<line fill="none" stroke="#7F7F7F" stroke-width="4" stroke-linecap="round" stroke-miterlimit="10" stroke-dasharray="4,12" x1="324" y1="266" x2="324" y2="339"/>
		<g>
			<path fill="#7F7F7F" d="M323.931,338.38c2.717-2.717,8.089-4.012,11.817-4.118c-5.004,3.725-9.369,8.565-11.817,14.422
				c-2.344-5.856-6.972-10.483-11.817-14.422C316.106,334.582,320.95,335.557,323.931,338.38z"/>
		</g>
	</g>
</g>
<text transform="matrix(1 0 0 1 482.7305 240.6963)" opacity="0.6"><tspan x="0" y="0" fill="#E6E6E6" font-family="'TheSerif-Bold'" font-size="18.4919">SQL + PHP</tspan><tspan x="14.072" y="22.19" fill="#E6E6E6" font-family="'TheSerif-Bold'" font-size="18.4919">+ XSLT</tspan></text>
<g opacity="0.6">
	<g>
		<g>
			<path fill="#3FA9F5" d="M480.43,322.677l4.679,15.915l4.683-15.915h3.389h9.301v1.582l-4.776,8.231
				c1.679,0.539,2.948,1.518,3.809,2.938c0.859,1.42,1.292,3.09,1.292,5.004c0,2.367-0.631,4.357-1.89,5.973
				c-1.26,1.613-2.889,2.42-4.891,2.42c-1.506,0-2.818-0.479-3.938-1.436c-1.12-0.958-1.947-2.255-2.484-3.892l2.646-1.097
				c0.389,0.99,0.898,1.771,1.535,2.341c0.635,0.571,1.382,0.855,2.242,0.855c0.902,0,1.667-0.506,2.293-1.518
				s0.936-2.227,0.936-3.647c0-1.572-0.334-2.787-0.999-3.648c-0.775-1.011-1.993-1.519-3.65-1.519h-1.291v-1.549l4.521-7.812
				h-5.457l-0.309,0.528l-6.637,22.393h-0.323l-4.842-16.205l-4.842,16.205h-0.322l-7.749-26.148h3.39l4.682,15.915l3.166-10.718
				l-1.552-5.197H480.43L480.43,322.677z"/>
			<path fill="#E6E6E6" d="M515.939,322.529l0.552,3.339l-1.945,3.718c0,0-0.746-1.578-1.984-2.451
				c-1.046-0.735-1.726-0.896-2.79-0.677c-1.365,0.283-2.914,1.917-3.592,3.932c-0.809,2.409-0.816,3.576-0.844,4.647
				c-0.045,1.717,0.224,2.733,0.224,2.733s-1.18-2.184-1.168-5.382c0.007-2.282,0.364-4.353,1.421-6.395
				c0.93-1.797,2.312-2.873,3.538-2.999c1.267-0.132,2.269,0.48,3.042,1.14c0.812,0.693,1.635,2.211,1.635,2.211L515.939,322.529
				L515.939,322.529z"/>
			<path fill="#E6E6E6" d="M516.182,341.419c0,0-0.86,1.534-1.396,2.126c-0.534,0.592-1.492,1.634-2.675,2.154
				c-1.182,0.521-1.803,0.62-2.973,0.507c-1.168-0.112-2.253-0.788-2.634-1.07c-0.381-0.281-1.352-1.112-1.901-1.887
				c-0.549-0.774-1.41-2.324-1.41-2.324s0.48,1.553,0.78,2.212c0.172,0.378,0.701,1.539,1.454,2.55
				c0.701,0.939,2.063,2.562,4.134,2.929c2.07,0.367,3.494-0.562,3.845-0.788c0.354-0.226,1.095-0.847,1.563-1.35
				c0.492-0.523,0.955-1.192,1.213-1.596c0.186-0.292,0.492-0.887,0.492-0.887L516.182,341.419L516.182,341.419z"/>
		</g>
	</g>
	<path fill="#808080" d="M606.975,334H517c0,3,0,3,0,5h89v69H444v-69h22c0-2,0-2,0-5h-19.967L442,336.989v69.904l4.033,5.106
		h160.941l2.025-5.106v-69.904L606.975,334z"/>
</g>
<text transform="matrix(1 0 0 1 482.9424 370.1289)" opacity="0.6"><tspan x="0" y="0" fill="#E6E6E6" font-family="'TheSerif-Bold'" font-size="18.4919">(X)HTML</tspan><tspan x="76.148" y="0" fill="#E6E6E6" font-family="'TheSerif-BoldExpert'" font-size="18.4919">5</tspan><tspan x="-0.343" y="22.19" fill="#E6E6E6" font-family="'TheSerif-Bold'" font-size="18.4919">JavaScript</tspan></text>
<g opacity="0.6">
	<g>
		<g>
			<path fill="#3FA9F5" d="M480.43,70.701l4.681,15.916l4.681-15.916h3.389h9.301v1.582l-4.776,8.231
				c1.679,0.539,2.948,1.519,3.809,2.938c0.859,1.421,1.292,3.088,1.292,5.003c0,2.368-0.631,4.359-1.89,5.972
				c-1.26,1.614-2.889,2.42-4.891,2.42c-1.506,0-2.818-0.479-3.938-1.436c-1.12-0.958-1.947-2.253-2.484-3.89l2.646-1.097
				c0.389,0.99,0.898,1.771,1.535,2.34c0.635,0.57,1.382,0.854,2.242,0.854c0.902,0,1.667-0.505,2.293-1.517
				c0.626-1.011,0.936-2.227,0.936-3.648c0-1.571-0.334-2.787-0.999-3.648c-0.775-1.01-1.993-1.517-3.65-1.517h-1.291v-1.549
				l4.521-7.813h-5.457l-0.309,0.529l-6.637,22.392h-0.321l-4.843-16.204l-4.842,16.204h-0.323l-7.748-26.148h3.39l4.682,15.916
				l3.165-10.717l-1.551-5.198H480.43L480.43,70.701z"/>
			<path fill="#E6E6E6" d="M515.939,70.553l0.552,3.338l-1.945,3.719c0,0-0.746-1.578-1.984-2.452
				c-1.046-0.735-1.726-0.895-2.79-0.676c-1.365,0.282-2.914,1.917-3.592,3.93c-0.809,2.41-0.816,3.577-0.844,4.648
				c-0.045,1.718,0.224,2.733,0.224,2.733s-1.18-2.183-1.168-5.38c0.007-2.283,0.364-4.353,1.421-6.395
				c0.93-1.796,2.312-2.874,3.538-3c1.267-0.131,2.269,0.479,3.042,1.141c0.812,0.694,1.635,2.211,1.635,2.211L515.939,70.553
				L515.939,70.553z"/>
			<path fill="#E6E6E6" d="M516.182,89.441c0,0-0.86,1.535-1.396,2.128c-0.534,0.591-1.492,1.633-2.675,2.155
				c-1.182,0.52-1.803,0.619-2.973,0.506c-1.168-0.111-2.253-0.788-2.634-1.07c-0.381-0.281-1.352-1.112-1.901-1.887
				c-0.549-0.775-1.41-2.324-1.41-2.324s0.48,1.552,0.78,2.212c0.172,0.379,0.701,1.539,1.454,2.549
				c0.701,0.941,2.063,2.563,4.134,2.929c2.07,0.367,3.494-0.563,3.845-0.789c0.354-0.224,1.095-0.846,1.563-1.348
				c0.492-0.524,0.955-1.193,1.213-1.595c0.186-0.292,0.492-0.888,0.492-0.888L516.182,89.441L516.182,89.441z"/>
		</g>
	</g>
	<path fill="#808080" d="M606.975,82H518c0,3,0,3,0,4h89v69H446V86h21c0-1,0-1,0-4h-20.967L442,85.015v69.902l4.033,2.083h160.941
		l4.025-2.083V85.015L606.975,82z"/>
</g>
<text transform="matrix(1 0 0 1 506.3984 123.8408)" opacity="0.6" fill="#E6E6E6" font-family="'TheSerif-Bold'" font-size="18.4919">XML</text>
<path opacity="0.6" fill="#808080" d="M606,211v66H444v-66H606 M605.481,208H444.298L441,211.206v66.045l3.298,3.749h161.184
	l3.519-3.749v-66.045L605.481,208L605.481,208z"/>
<g>
	<g>
		<defs>
			<rect id="SVGID_1_" x="-581.042" y="-413.396" width="1930.085" height="1432.793"/>
		</defs>
		<clipPath id="SVGID_2_">
			<use xlink:href="#SVGID_1_"  overflow="visible"/>
		</clipPath>
		<g clip-path="url(#SVGID_2_)">
			<defs>
				
					<rect id="SVGID_3_" x="159.487" y="18.876" transform="matrix(-0.8955 -0.4451 0.4451 -0.8955 402.8588 235.7007)" width="139.229" height="103.355"/>
			</defs>
			<clipPath id="SVGID_4_">
				<use xlink:href="#SVGID_3_"  overflow="visible"/>
			</clipPath>
			<g clip-path="url(#SVGID_4_)">
				<path fill="#FFFFFF" d="M206.209,85.507c-1.841,0.745-3.341,1.493-4.498,2.248c-1.157,0.752-1.896,1.453-2.218,2.1
					c-0.511,1.027-0.489,1.938,0.063,2.737c0.555,0.796,1.915,1.733,4.083,2.812l5.479,2.723l-4.425,8.904l-40.808-20.282
					l4.426-8.903l3.881,1.929c2.282,1.135,4.289,1.704,6.018,1.709c1.728,0.006,4.245-0.689,7.547-2.083l35.082-14.308
					l-6.919-32.333c-0.749-3.457-1.744-6.038-2.982-7.745c-1.239-1.708-3.058-3.157-5.455-4.349l-3.996-1.985l4.397-8.847
					l41.492,20.623l-4.397,8.846l-5.365-2.667c-1.103-0.548-2.039-0.765-2.809-0.648c-0.77,0.116-1.343,0.554-1.722,1.315
					c-0.265,0.533-0.392,1.146-0.38,1.839c0.011,0.694,0.161,1.61,0.448,2.75l4.062,17.604l18.995-6.857
					c0.854-0.288,1.604-0.65,2.25-1.089c0.644-0.438,1.07-0.866,1.279-1.285c0.339-0.686,0.172-1.422-0.504-2.208
					c-0.677-0.787-1.871-1.605-3.583-2.457l-4.565-2.27l4.397-8.847l36.81,18.295l-4.396,8.847l-4.223-2.099
					c-3.005-1.493-8.514-0.673-16.525,2.463l-0.171,0.057l-26.71,10.354l7.55,34.64c1.19,5.433,2.392,8.959,3.603,10.581
					c1.209,1.623,3.318,3.181,6.324,4.674l3.482,1.73l-4.425,8.904l-44.975-22.353l4.426-8.905l5.365,2.667
					c1.903,0.946,3.372,1.475,4.407,1.587c1.036,0.111,1.744-0.214,2.121-0.975c0.284-0.571,0.468-1.226,0.552-1.967
					c0.084-0.742,0.039-1.51-0.134-2.309l-4.756-22.506L206.209,85.507z"/>
			</g>
			<g clip-path="url(#SVGID_4_)">
				<path d="M257.2,134.118l-46.563-23.143l5.215-10.492l6.16,3.061c1.799,0.894,3.18,1.398,4.107,1.498
					c0.826,0.089,1.08-0.182,1.232-0.488c0.235-0.475,0.392-1.038,0.463-1.673c0.073-0.641,0.032-1.32-0.119-2.019l-4.536-21.464
					l-16.618,6.931c-1.78,0.719-3.243,1.452-4.347,2.169c-1.267,0.824-1.737,1.407-1.908,1.752
					c-0.477,0.959-0.229,1.507-0.002,1.834c0.318,0.46,1.229,1.271,3.748,2.524l6.274,3.118l-5.215,10.493l-42.396-21.073
					l5.216-10.491l4.675,2.323c2.15,1.069,4.042,1.613,5.626,1.618c1.601,0.005,4.024-0.672,7.2-2.015l0.01-0.003l34.394-14.026
					l-6.763-31.607c-0.719-3.317-1.672-5.812-2.833-7.411c-1.148-1.581-2.875-2.952-5.131-4.074l-4.79-2.381l5.187-10.436
					l43.082,21.413l-5.187,10.435l-6.16-3.061c-0.931-0.463-1.699-0.654-2.281-0.566c-0.482,0.072-0.809,0.33-1.06,0.833
					c-0.199,0.402-0.296,0.883-0.288,1.431c0.011,0.621,0.153,1.478,0.422,2.546l0.003,0.018l3.836,16.629l18.074-6.524
					c0.774-0.26,1.458-0.59,2.032-0.982c0.641-0.436,0.889-0.754,0.984-0.947c0.074-0.149,0.249-0.5-0.384-1.234
					c-0.595-0.692-1.707-1.447-3.304-2.24l-5.36-2.665l5.187-10.435l38.402,19.084l-5.188,10.436l-5.018-2.494
					c-2.759-1.371-8.077-0.533-15.808,2.494l-0.041,0.014l-0.151,0.052l-25.985,10.072l7.39,33.899
					c1.158,5.28,2.317,8.725,3.446,10.237c1.121,1.503,3.142,2.986,6.008,4.41l4.277,2.126L257.2,134.118z M213.017,110.177
					l43.385,21.562l3.635-7.315l-2.688-1.335c-3.16-1.571-5.333-3.185-6.64-4.937c-1.299-1.739-2.528-5.312-3.758-10.921
					l-7.712-35.384l27.456-10.641l0.151-0.05c8.32-3.255,13.955-4.047,17.223-2.424l3.428,1.704l3.607-7.257l-35.223-17.506
					l-3.607,7.257l3.771,1.874c1.836,0.914,3.099,1.788,3.861,2.674c1.155,1.344,0.978,2.472,0.625,3.18
					c-0.279,0.564-0.794,1.095-1.576,1.625c-0.706,0.48-1.532,0.882-2.455,1.193l-19.927,7.194l-4.284-18.571
					c-0.306-1.213-0.461-2.177-0.473-2.944c-0.015-0.833,0.145-1.589,0.472-2.248c0.507-1.018,1.331-1.639,2.384-1.798
					c0.963-0.145,2.054,0.094,3.336,0.731l4.571,2.272l3.607-7.258l-39.903-19.832l-3.606,7.257l3.199,1.591
					c2.516,1.25,4.46,2.805,5.778,4.621c1.306,1.8,2.361,4.517,3.132,8.079l7.074,33.062l-35.765,14.585
					c-3.443,1.454-6.024,2.159-7.891,2.152c-1.858-0.006-4.015-0.612-6.41-1.803l-3.086-1.534l-3.635,7.315l39.218,19.492
					l3.635-7.314l-4.685-2.328c-2.325-1.156-3.77-2.17-4.417-3.102c-0.514-0.741-0.955-1.975-0.129-3.636
					c0.397-0.799,1.225-1.6,2.53-2.449c1.197-0.78,2.761-1.562,4.644-2.325l18.582-7.75l4.978,23.554
					c0.191,0.884,0.241,1.758,0.147,2.591c-0.095,0.841-0.309,1.603-0.637,2.264c-0.315,0.633-1.125,1.665-3.012,1.461
					c-1.151-0.124-2.691-0.671-4.707-1.673l-4.57-2.271L213.017,110.177z"/>
			</g>
			<g clip-path="url(#SVGID_4_)">
				<path fill="#E00000" d="M185.754,30.52l16.462,8.181c2.744,1.364,4.512,3.091,5.305,5.18c0.794,2.088,0.691,4.136-0.305,6.141
					c-0.836,1.683-2.077,2.866-3.724,3.547c-1.098,0.456-2.436,0.582-4.013,0.38c1.8,1.507,2.886,3.1,3.254,4.776
					c0.37,1.676,0.104,3.421-0.797,5.231c-0.733,1.477-1.735,2.631-3.006,3.469c-1.271,0.837-2.673,1.303-4.205,1.397
					c-0.95,0.06-2.217-0.184-3.801-0.729c-2.108-0.724-3.487-1.249-4.134-1.569l-15.181-7.545L185.754,30.52z M189.078,46.09
					l3.824,1.9c1.373,0.682,2.444,0.92,3.215,0.715c0.772-0.205,1.381-0.753,1.824-1.647c0.413-0.829,0.465-1.609,0.16-2.342
					c-0.306-0.733-1.125-1.431-2.458-2.093l-3.883-1.93L189.078,46.09z M183.521,57.272l4.484,2.228
					c1.514,0.753,2.716,1.014,3.604,0.787c0.889-0.229,1.557-0.794,2.008-1.701c0.418-0.842,0.446-1.669,0.086-2.487
					c-0.361-0.817-1.312-1.608-2.851-2.374l-4.466-2.218L183.521,57.272z"/>
			</g>
			<g clip-path="url(#SVGID_4_)">
				<path fill="#FFFFFF" d="M186.395,67.318l-15.976-7.94l14.935-30.048l17.257,8.576c2.938,1.461,4.869,3.364,5.74,5.659
					c0.881,2.321,0.767,4.626-0.339,6.853c-0.931,1.874-2.336,3.209-4.18,3.974c-0.641,0.265-1.353,0.433-2.13,0.502
					c0.984,1.162,1.622,2.38,1.899,3.641c0.412,1.872,0.12,3.828-0.869,5.818c-0.8,1.611-1.916,2.894-3.314,3.814
					c-1.396,0.92-2.957,1.438-4.638,1.541c-1.076,0.069-2.434-0.184-4.145-0.774C188.47,68.188,187.083,67.659,186.395,67.318z
					 M172.8,58.579l14.386,7.149c0.609,0.304,1.965,0.816,4.027,1.526c1.465,0.505,2.629,0.733,3.457,0.681
					c1.37-0.084,2.638-0.505,3.772-1.251c1.133-0.746,2.041-1.796,2.7-3.122c0.815-1.641,1.052-3.159,0.725-4.646
					c-0.324-1.472-1.32-2.914-2.958-4.287l-2.326-1.949l3.01,0.388c1.414,0.182,2.612,0.076,3.558-0.317
					c1.455-0.604,2.526-1.625,3.271-3.123c0.89-1.791,0.978-3.567,0.269-5.431c-0.708-1.863-2.346-3.445-4.871-4.699l-15.667-7.786
					L172.8,58.579z M187.609,60.296l-5.28-2.624l3.656-7.356l5.259,2.615c1.748,0.868,2.818,1.786,3.269,2.808
					c0.471,1.065,0.437,2.157-0.103,3.241c-0.568,1.143-1.438,1.872-2.582,2.167C190.717,61.434,189.336,61.155,187.609,60.296z
					 M184.711,56.873l3.688,1.833c1.633,0.811,2.526,0.84,2.988,0.722c0.641-0.165,1.096-0.558,1.433-1.236
					c0.301-0.608,0.323-1.158,0.069-1.734c-0.188-0.425-0.763-1.105-2.434-1.936l-3.669-1.823L184.711,56.873z M192.508,48.787
					L192.508,48.787l-4.621-2.296l3.473-6.987l4.678,2.325c1.545,0.768,2.487,1.602,2.882,2.546
					c0.408,0.979,0.346,2.013-0.183,3.079c-0.561,1.127-1.366,1.838-2.391,2.111C195.35,49.829,194.094,49.575,192.508,48.787z
					 M190.268,45.69l3.029,1.506c1.529,0.76,2.281,0.735,2.593,0.651c0.518-0.138,0.929-0.525,1.256-1.185
					c0.298-0.599,0.34-1.11,0.134-1.605c-0.151-0.362-0.626-0.94-2.033-1.64l-3.088-1.535L190.268,45.69z"/>
			</g>
			<g clip-path="url(#SVGID_4_)">
				<path fill="#E00000" d="M218.276,76.312l-10.017-4.979l-3.713,4.013l-8.988-4.466l24.84-23.143l9.59,4.767l-3.449,33.775
					l-9.201-4.573L218.276,76.312z M219.491,69.242l1.939-11.793l-8.21,8.677L219.491,69.242z"/>
			</g>
			<g clip-path="url(#SVGID_4_)">
				<path fill="#FFFFFF" d="M227.294,87.645l-10.943-5.439l0.937-5.393l-8.829-4.388l-3.714,4.012l-10.73-5.333l26.229-24.436
					l10.691,5.314L227.294,87.645z M218.326,81.206l7.461,3.708l3.255-31.888l-8.488-4.219l-23.453,21.85l7.244,3.6l3.713-4.014
					l11.205,5.57L218.326,81.206z M220.171,70.572l-8.421-4.185l11.026-11.652L220.171,70.572z M214.689,65.865l4.119,2.048
					l1.275-7.749L214.689,65.865z"/>
			</g>
			<g clip-path="url(#SVGID_4_)">
				<path fill="#E00000" d="M228.903,76.318l8.627,3.635c-0.493,1.45-0.64,2.667-0.437,3.655c0.334,1.602,1.342,2.82,3.025,3.656
					c1.255,0.624,2.369,0.811,3.34,0.561c0.972-0.251,1.651-0.767,2.037-1.542c0.366-0.737,0.371-1.557,0.013-2.463
					c-0.358-0.904-1.585-2.199-3.684-3.888c-3.426-2.784-5.603-5.303-6.533-7.557c-0.943-2.259-0.86-4.502,0.246-6.728
					c0.728-1.463,1.837-2.634,3.331-3.513c1.496-0.88,3.277-1.27,5.349-1.167c2.072,0.102,4.59,0.889,7.554,2.361
					c3.636,1.808,6.073,3.863,7.311,6.163c1.236,2.302,1.302,5.018,0.198,8.148l-8.53-3.635c0.416-1.391,0.417-2.551,0.001-3.484
					c-0.416-0.933-1.245-1.708-2.487-2.326c-1.022-0.508-1.9-0.674-2.634-0.498c-0.733,0.176-1.254,0.575-1.563,1.196
					c-0.224,0.452-0.214,0.966,0.033,1.542c0.228,0.581,1.039,1.419,2.431,2.515c3.431,2.738,5.769,4.945,7.011,6.619
					c1.24,1.675,1.928,3.327,2.061,4.959c0.134,1.632-0.186,3.226-0.958,4.777c-0.907,1.825-2.248,3.257-4.023,4.296
					c-1.775,1.038-3.766,1.503-5.974,1.399c-2.208-0.104-4.689-0.841-7.446-2.211c-4.84-2.406-7.729-5.003-8.666-7.794
					C227.6,82.207,227.722,79.313,228.903,76.318"/>
			</g>
			<g clip-path="url(#SVGID_4_)">
				<path fill="#FFFFFF" d="M236.808,93.584c-5.107-2.538-8.088-5.254-9.113-8.306c-1.001-2.981-0.873-6.106,0.383-9.286
					l0.334-0.846l10.227,4.309l-0.267,0.784c-0.44,1.291-0.578,2.366-0.409,3.191c0.277,1.33,1.112,2.326,2.55,3.04
					c1.053,0.524,1.969,0.689,2.723,0.496c0.717-0.187,1.196-0.539,1.464-1.077c0.251-0.506,0.247-1.075-0.016-1.742
					c-0.169-0.423-0.837-1.446-3.416-3.522c-3.579-2.909-5.801-5.495-6.798-7.908c-1.039-2.495-0.949-5.007,0.272-7.464
					c0.801-1.612,2.039-2.918,3.677-3.883c1.639-0.965,3.604-1.397,5.842-1.288c2.186,0.107,4.844,0.933,7.905,2.454
					c3.787,1.882,6.376,4.082,7.697,6.537c1.353,2.519,1.439,5.501,0.253,8.864l-0.314,0.892l-9.87-4.205
					c1.985,1.73,3.41,3.188,4.321,4.417c1.336,1.802,2.088,3.623,2.235,5.416c0.145,1.787-0.207,3.552-1.048,5.243
					c-0.981,1.975-2.451,3.545-4.37,4.667c-1.917,1.123-4.092,1.635-6.464,1.521C242.287,95.778,239.662,95.002,236.808,93.584z
					 M229.422,77.501c-0.803,2.481-0.818,4.904-0.043,7.212c0.854,2.546,3.621,4.995,8.22,7.281c2.632,1.309,5.02,2.021,7.092,2.121
					c2.022,0.096,3.869-0.336,5.484-1.28c1.615-0.946,2.852-2.266,3.676-3.925c0.695-1.397,0.987-2.848,0.868-4.309
					c-0.119-1.457-0.754-2.97-1.89-4.502c-1.19-1.604-3.496-3.776-6.852-6.454c-2.017-1.587-2.508-2.397-2.697-2.871
					c-0.434-1.019-0.244-1.799-0.007-2.274c0.424-0.853,1.168-1.428,2.151-1.664c0.938-0.225,2.026-0.036,3.235,0.565
					c1.428,0.709,2.404,1.637,2.904,2.76c0.42,0.941,0.498,2.059,0.235,3.328l6.935,2.954c0.716-2.515,0.573-4.659-0.432-6.529
					c-1.143-2.125-3.473-4.072-6.923-5.787c-2.84-1.412-5.264-2.175-7.202-2.271c-1.885-0.093-3.519,0.259-4.854,1.045
					c-1.355,0.797-2.333,1.826-2.987,3.142c-0.996,2.003-1.069,3.964-0.222,5.992c0.869,2.108,2.979,4.532,6.273,7.21
					c2.268,1.826,3.524,3.176,3.949,4.25c0.452,1.143,0.438,2.215-0.044,3.185c-0.503,1.013-1.382,1.689-2.609,2.005
					c-1.181,0.305-2.513,0.094-3.958-0.624c-1.932-0.96-3.109-2.396-3.498-4.271c-0.198-0.964-0.126-2.058,0.221-3.33
					L229.422,77.501z M247.869,68.991c-0.826-0.41-1.508-0.555-2.03-0.43c-0.475,0.115-0.785,0.347-0.975,0.729
					c-0.067,0.133-0.133,0.361,0.054,0.795l0.011,0.027c0.059,0.152,0.39,0.755,2.151,2.141c0.961,0.767,1.832,1.487,2.621,2.169
					l0.2-0.669c0.352-1.176,0.366-2.141,0.041-2.87C249.613,70.148,248.916,69.512,247.869,68.991z"/>
			</g>
			<g clip-path="url(#SVGID_4_)">
				<polygon fill="#E00000" points="264.703,69.757 288.27,81.47 285.249,87.546 270.495,80.214 268.248,84.737 281.935,91.539 
					279.049,97.344 265.362,90.542 262.575,96.152 277.755,103.698 274.553,110.142 250.559,98.215 				"/>
			</g>
			<g clip-path="url(#SVGID_4_)">
				<path fill="#FFFFFF" d="M274.953,111.332l-25.585-12.716l14.935-30.049l25.157,12.504l-3.811,7.667l-14.754-7.333l-1.458,2.933
					l13.687,6.802l-3.675,7.396l-13.687-6.804l-1.998,4.021l15.182,7.545L274.953,111.332z M251.749,97.817l22.403,11.135
					l2.414-4.855l-15.181-7.545l3.579-7.201l13.686,6.802l2.094-4.213l-13.687-6.802l3.039-6.114l14.753,7.333l2.23-4.486
					l-21.977-10.921L251.749,97.817z"/>
			</g>
		</g>
	</g>
</g>
</svg>
